<svg width="850" height="744" viewBox="0 0 850 744" fill="none" xmlns="http://www.w3.org/2000/svg">
<path d="M792.329 278.34C792.329 278.34 803.269 146.409 743.301 89.6826" stroke="#5B5B6D" stroke-width="0.5" stroke-linecap="round" stroke-linejoin="round"/>
<path d="M758.69 42.5352C756.693 39.9928 754.99 13.3661 739.692 13.0483C724.416 12.7078 730.862 23.6717 720.171 29.8007C709.457 35.9296 706.779 31.6166 699.13 33.6596C691.503 35.7026 685.465 43.7156 686.101 51.4335C686.736 59.1514 708.822 72.2945 708.822 72.2945C708.822 72.2945 729.091 79.0817 739.692 66.0067C750.314 52.9317 758.667 42.5352 758.667 42.5352H758.69Z" fill="#B2D8D1"/>
<path d="M778.301 18.4735C778.301 18.4735 799.048 62.0343 767.497 97.2188C735.946 132.403 682.605 95.085 677.975 86.1868C673.345 77.2885 680.722 66.8012 697.496 74.2467C714.27 81.6922 702.058 58.7882 708.89 45.6905C715.722 32.5927 729.772 28.9608 745.639 41.1505C761.505 53.3403 756.443 22.8319 759.712 13.7974C762.98 4.76288 775.895 12.1403 778.301 18.4735Z" fill="#91C997"/>
<path d="M759.643 104.233C759.643 104.233 788.652 74.8596 773.467 27.3037" stroke="#5B5B6D" stroke-width="0.5" stroke-linecap="round" stroke-linejoin="round"/>
<path d="M765.318 37.2236C765.318 37.2236 778.12 93.8367 749.747 109.409" stroke="#5B5B6D" stroke-width="0.5" stroke-linecap="round" stroke-linejoin="round"/>
<path d="M689.982 82.9634C689.982 82.9634 725.233 125.412 758.962 104.687" stroke="#5B5B6D" stroke-width="0.5" stroke-linecap="round" stroke-linejoin="round"/>
<path d="M710.729 67.5957C710.729 67.5957 720.761 103.461 756.738 106.117" stroke="#5B5B6D" stroke-width="0.5" stroke-linecap="round" stroke-linejoin="round"/>
<path d="M730.794 40.8779C730.794 40.8779 753.469 67.8225 753.356 105.754" stroke="#5B5B6D" stroke-width="0.5" stroke-linecap="round" stroke-linejoin="round"/>
<path d="M705.621 32.57C705.621 32.57 685.102 15.4771 677.725 16.4078C670.348 17.3385 680.04 26.0324 681.425 17.6563" stroke="#5B5B6D" stroke-width="0.5" stroke-linecap="round" stroke-linejoin="round"/>
<path d="M721.601 28.1436C721.601 28.1436 705.258 7.01017 706.461 -0.321838C707.642 -7.67654 715.995 2.33403 707.574 3.40091" stroke="#5B5B6D" stroke-width="0.5" stroke-linecap="round" stroke-linejoin="round"/>
<path d="M743.028 800.433C700.605 672.452 650.873 538.115 655.413 397.99" stroke="#5B5B6D" stroke-width="0.5" stroke-linecap="round" stroke-linejoin="round"/>
<path d="M730.567 775.826C727.276 759.596 724.802 743.184 723.054 726.704C720.693 701.122 718.719 674.449 726.504 649.571C738.375 615.203 759.371 584.99 773.421 551.599C774.193 549.715 776.077 544.766 776.826 542.95C780.049 534.211 782.228 525.176 783.295 515.937C784.203 507.675 785.928 499.525 787.971 491.49C791.875 475.418 798.208 459.915 801.204 443.662C801.885 439.644 802.271 435.512 801.772 431.449C801.522 427.363 799.502 423.708 798.185 419.713C795.575 411.791 793.487 403.37 795.303 394.993C795.393 394.494 796.188 394.426 796.347 394.925C806.652 418.215 816.503 441.777 824.22 466.089C827.965 478.165 831.529 491.104 828.646 503.816C825.764 516.232 819 527.514 817.456 540.226C816.73 544.403 816.73 548.602 816.321 552.87C815.277 565.582 812.008 578.044 808.558 590.302C801.068 614.568 793.169 639.197 780.367 661.238C751.654 694.811 733.609 731.176 730.59 775.826H730.567ZM730.567 775.826C732.224 750.425 739.056 725.274 750.95 702.733C756.829 691.429 763.933 680.76 771.923 670.818C775.146 666.595 778.937 662.85 781.479 658.196C792.942 636.677 800.796 613.387 807.787 590.097C810.987 578.906 813.779 567.557 815.209 555.98C815.708 550.736 815.754 545.356 816.571 540.113C818.114 527.31 824.833 516.028 827.716 503.634C830.508 491.059 826.989 478.437 823.244 466.407C815.527 442.163 805.585 418.646 795.303 395.402L796.347 395.334C794.622 403.256 796.642 411.746 799.161 419.35C800.137 422.097 801.454 425.32 802.271 428.18C803.383 433.31 803.111 438.668 802.18 443.82C799.139 460.187 792.783 475.6 788.834 491.717C784.135 507.652 784.475 524.677 778.574 540.294C778.12 541.792 777.053 544.698 776.44 546.151C762.958 580.949 740.849 611.776 728.116 646.869C715.087 683.348 723.78 737.963 730.567 775.849V775.826Z" fill="#5B5B6D"/>
<path d="M802.316 439.417C802.316 439.417 808.831 453.127 808.127 474.465C807.446 495.825 788.084 517.617 796.12 553.097C804.155 588.576 762.208 613.773 742.529 668.729C722.85 723.685 731.044 769.902 731.044 769.902" stroke="#5B5B6D" stroke-width="0.5" stroke-linecap="round" stroke-linejoin="round"/>
<path d="M779.663 561.155C779.663 561.155 779.595 575.297 763.502 589.848C747.386 604.398 717.425 700.327 729.387 744.569" stroke="#5B5B6D" stroke-width="0.5" stroke-linecap="round" stroke-linejoin="round"/>
<path d="M801.999 584.809C801.999 584.809 796.687 617.088 774.579 637.449C752.471 657.834 723.985 741.527 730.567 775.827" stroke="#5B5B6D" stroke-width="0.5" stroke-linecap="round" stroke-linejoin="round"/>
<path d="M689.37 625.918C686.078 609.687 683.604 593.276 681.856 576.796C679.496 551.213 677.521 524.541 685.307 499.662C697.178 465.295 718.174 435.081 732.224 401.69C732.996 399.806 734.88 394.857 735.629 393.041C738.852 384.302 741.031 375.268 742.098 366.029C743.006 357.766 744.731 349.617 746.773 341.581C750.678 325.51 757.01 310.006 760.007 293.753C760.687 289.735 761.073 285.604 760.574 281.54C760.324 277.454 758.304 273.8 756.988 269.805C754.377 261.882 752.289 253.461 754.105 245.085C754.196 244.585 754.99 244.517 755.149 245.017C765.454 268.306 775.305 291.869 783.023 316.18C786.768 328.256 790.331 341.195 787.449 353.907C784.566 366.324 777.802 377.606 776.259 390.317C775.532 394.494 775.532 398.694 775.124 402.961C774.079 415.673 770.811 428.135 767.361 440.393C759.87 464.659 751.971 489.288 739.17 511.33C710.456 544.902 692.411 581.267 689.392 625.918H689.37ZM689.37 625.918C691.026 600.517 697.859 575.365 709.753 552.825C715.631 541.52 722.736 530.851 730.726 520.909C733.949 516.687 737.74 512.941 740.282 508.288C751.722 486.768 759.598 463.479 766.589 440.189C769.79 428.998 772.581 417.648 774.011 406.071C774.511 400.827 774.556 395.448 775.373 390.204C776.917 377.401 783.635 366.119 786.518 353.725C789.31 341.15 785.792 328.529 782.047 316.498C774.329 292.255 764.387 268.738 754.105 245.493L755.149 245.425C753.424 253.347 755.444 261.837 757.964 269.441C758.94 272.188 760.256 275.411 761.073 278.272C762.186 283.402 761.913 288.759 760.983 293.912C757.941 310.278 751.586 325.691 747.636 341.808C742.937 357.743 743.278 374.768 737.376 390.385C736.922 391.884 735.856 394.789 735.243 396.242C721.76 431.041 699.652 461.867 686.918 496.961C673.889 533.439 682.583 588.055 689.37 625.94V625.918Z" fill="#5B5B6D"/>
<path d="M761.119 289.508C761.119 289.508 767.633 303.218 766.93 324.556C766.249 345.917 746.887 367.708 754.922 403.188C762.957 438.668 720.988 463.864 701.332 518.82C681.652 573.776 689.846 619.993 689.846 619.993" stroke="#5B5B6D" stroke-width="0.5" stroke-linecap="round" stroke-linejoin="round"/>
<path d="M738.466 411.247C738.466 411.247 738.398 425.411 722.305 439.962C706.189 454.512 676.227 550.441 688.189 594.683" stroke="#5B5B6D" stroke-width="0.5" stroke-linecap="round" stroke-linejoin="round"/>
<path d="M760.801 434.899C760.801 434.899 755.49 467.178 733.381 487.54C711.273 507.924 682.787 591.618 689.369 625.917" stroke="#5B5B6D" stroke-width="0.5" stroke-linecap="round" stroke-linejoin="round"/>
<path d="M508.306 381.101C508.306 381.101 556.925 402.484 561.896 459.461C566.867 516.437 671.12 569.713 671.12 569.713C671.12 569.713 621.252 578.203 572.065 541.77C522.878 505.337 541.831 425.32 508.306 381.079V381.101Z" stroke="#5B5B6D" stroke-width="0.5" stroke-linecap="round" stroke-linejoin="round"/>
<path d="M528.348 405.821C528.348 405.821 548.55 449.223 549.548 482.978C550.547 516.755 607.111 566.717 671.143 569.713" stroke="#5B5B6D" stroke-width="0.5" stroke-linecap="round" stroke-linejoin="round"/>
<path d="M637.322 161.663C637.322 161.663 663.267 208.016 632.942 256.502C602.617 304.966 653.756 410.293 653.756 410.293C653.756 410.293 608.836 387.049 591.495 328.347C574.153 269.646 637.481 217.164 637.345 161.663H637.322Z" stroke="#5B5B6D" stroke-width="0.5" stroke-linecap="round" stroke-linejoin="round"/>
<path d="M638.412 193.443C638.412 193.443 628.425 240.25 608.882 267.83C589.338 295.387 604.41 369.343 653.733 410.293" stroke="#5B5B6D" stroke-width="0.5" stroke-linecap="round" stroke-linejoin="round"/>
<path d="M489.216 525.471C489.216 525.471 496.253 628.891 603.638 643.691C711.024 658.492 713.793 714.741 713.793 714.741C713.793 714.741 703.715 677.537 620.367 673.019C546.234 669.001 487.355 608.28 488.921 534.052C488.989 531.237 489.08 528.377 489.216 525.471Z" stroke="#5B5B6D" stroke-width="0.5" stroke-linecap="round" stroke-linejoin="round"/>
<path d="M541.263 626.689C541.263 626.689 579.828 660.829 627.835 663.531C675.842 666.232 703.42 685.277 711.591 709.997" stroke="#5B5B6D" stroke-width="0.5" stroke-linecap="round" stroke-linejoin="round"/>
<path d="M561.601 309.234C561.601 309.234 537.155 382.077 606.544 422.619C675.91 463.161 661.905 502.477 661.905 502.477C661.905 502.477 665.536 474.125 609.699 447.452C560.035 423.731 536.883 365.461 558.968 315.045C559.808 313.138 560.693 311.209 561.601 309.257V309.234Z" stroke="#5B5B6D" stroke-width="0.5" stroke-linecap="round" stroke-linejoin="round"/>
<path d="M568.615 393.291C568.615 393.291 585.366 427.59 617.507 443.026C649.625 458.462 663.13 479.323 661.723 498.572" stroke="#5B5B6D" stroke-width="0.5" stroke-linecap="round" stroke-linejoin="round"/>
<path d="M703.488 204.543C703.488 204.543 745.888 268.602 689.324 325.669C632.76 382.736 656.457 417.103 656.457 417.103C656.457 417.103 645.63 390.658 692.684 350.479C734.539 314.75 741.871 252.462 707.528 209.469C706.234 207.834 704.873 206.2 703.488 204.543Z" stroke="#5B5B6D" stroke-width="0.5" stroke-linecap="round" stroke-linejoin="round"/>
<path d="M718.401 287.579C718.401 287.579 711.069 325.056 684.013 348.255C656.957 371.454 649.307 395.084 655.617 413.335" stroke="#5B5B6D" stroke-width="0.5" stroke-linecap="round" stroke-linejoin="round"/>
<path d="M850.504 400.691C850.504 400.691 727.389 360.513 693.727 504.656C671.574 599.495 609.857 686.367 381.354 601.425C152.85 516.482 8.76153 644.327 0 743.797H850.504V400.668V400.691Z" fill="#EEF4E6"/>
<path d="M285.181 762.456C285.181 762.456 293.171 666.187 249.409 624.805" stroke="#5B5B6D" stroke-width="0.5" stroke-linecap="round" stroke-linejoin="round"/>
<path d="M260.644 590.393C259.192 588.531 257.943 569.123 246.776 568.873C235.631 568.624 240.352 576.614 232.521 581.086C224.713 585.558 222.738 582.402 217.177 583.901C211.616 585.399 207.213 591.233 207.666 596.862C208.143 602.492 224.236 612.071 224.236 612.071C224.236 612.071 239.013 617.02 246.776 607.486C254.516 597.952 260.622 590.37 260.622 590.37L260.644 590.393Z" fill="#91C997"/>
<path d="M274.944 572.823C274.944 572.823 290.084 604.625 267.068 630.276C244.029 655.949 205.124 628.71 201.742 622.218C198.36 615.726 203.74 608.076 215.974 613.501C228.208 618.926 219.311 602.219 224.304 592.663C229.298 583.106 239.535 580.45 251.111 589.348C262.687 598.247 258.987 575.978 261.371 569.373C263.754 562.79 273.174 568.17 274.944 572.778V572.823Z" fill="#B2D8D1"/>
<path d="M261.325 635.429C261.325 635.429 282.503 614 271.426 579.292" stroke="#5B5B6D" stroke-width="0.5" stroke-linecap="round" stroke-linejoin="round"/>
<path d="M265.479 586.511C265.479 586.511 274.831 627.824 254.107 639.174" stroke="#5B5B6D" stroke-width="0.5" stroke-linecap="round" stroke-linejoin="round"/>
<path d="M210.504 619.902C210.504 619.902 236.221 650.865 260.849 635.747" stroke="#5B5B6D" stroke-width="0.5" stroke-linecap="round" stroke-linejoin="round"/>
<path d="M225.644 608.688C225.644 608.688 232.975 634.861 259.215 636.791" stroke="#5B5B6D" stroke-width="0.5" stroke-linecap="round" stroke-linejoin="round"/>
<path d="M240.284 589.189C240.284 589.189 256.831 608.847 256.74 636.541" stroke="#5B5B6D" stroke-width="0.5" stroke-linecap="round" stroke-linejoin="round"/>
<path d="M221.921 583.129C221.921 583.129 206.94 570.667 201.561 571.325C196.181 572.006 203.24 578.362 204.262 572.233" stroke="#5B5B6D" stroke-width="0.5" stroke-linecap="round" stroke-linejoin="round"/>
<path d="M233.565 579.883C233.565 579.883 221.649 564.47 222.511 559.112C223.374 553.755 229.48 561.042 223.328 561.836" stroke="#5B5B6D" stroke-width="0.5" stroke-linecap="round" stroke-linejoin="round"/>
<path d="M324.653 856.865C324.653 856.865 312.918 715.445 377.223 654.633" stroke="#5B5B6D" stroke-width="0.5" stroke-linecap="round" stroke-linejoin="round"/>
<path d="M360.698 604.081C362.832 601.357 364.67 572.823 381.059 572.46C397.447 572.097 390.501 583.855 401.986 590.415C413.472 596.998 416.354 592.368 424.526 594.547C432.697 596.749 439.166 605.329 438.485 613.592C437.804 621.854 414.13 635.951 414.13 635.951C414.13 635.951 392.408 643.238 381.036 629.209C369.664 615.203 360.698 604.058 360.698 604.058V604.081Z" fill="#B2D8D1"/>
<path d="M339.702 578.271C339.702 578.271 317.458 624.987 351.279 662.691C385.099 700.395 442.276 660.398 447.224 650.864C452.195 641.331 444.273 630.094 426.296 638.062C408.319 646.052 421.416 621.514 414.085 607.463C406.753 593.412 391.704 589.53 374.703 602.605C357.702 615.68 363.127 582.97 359.632 573.277C356.136 563.584 342.29 571.506 339.702 578.293V578.271Z" fill="#91C997"/>
<path d="M359.7 670.205C359.7 670.205 328.603 638.72 344.878 587.737" stroke="#5B5B6D" stroke-width="0.5" stroke-linecap="round" stroke-linejoin="round"/>
<path d="M353.616 598.383C353.616 598.383 339.884 659.082 370.3 675.766" stroke="#5B5B6D" stroke-width="0.5" stroke-linecap="round" stroke-linejoin="round"/>
<path d="M434.377 647.414C434.377 647.414 396.584 692.904 360.426 670.704" stroke="#5B5B6D" stroke-width="0.5" stroke-linecap="round" stroke-linejoin="round"/>
<path d="M412.133 630.934C412.133 630.934 401.374 669.365 362.809 672.225" stroke="#5B5B6D" stroke-width="0.5" stroke-linecap="round" stroke-linejoin="round"/>
<path d="M390.615 602.31C390.615 602.31 366.305 631.184 366.441 671.862" stroke="#5B5B6D" stroke-width="0.5" stroke-linecap="round" stroke-linejoin="round"/>
<path d="M417.603 593.389C417.603 593.389 439.598 575.07 447.519 576.069C455.441 577.068 445.045 586.398 443.57 577.408" stroke="#5B5B6D" stroke-width="0.5" stroke-linecap="round" stroke-linejoin="round"/>
<path d="M400.466 588.645C400.466 588.645 417.989 565.99 416.718 558.136C415.447 550.259 406.481 560.974 415.537 562.131" stroke="#5B5B6D" stroke-width="0.5" stroke-linecap="round" stroke-linejoin="round"/>
<path d="M685.76 472.014C685.76 472.014 672.641 399.375 608.064 394.313C543.488 389.273 533.41 378.15 533.41 378.15C533.41 378.15 509.191 430.632 553.588 459.892C597.986 489.152 622.205 514.508 629.264 544.721C636.324 574.934 700.9 520.432 685.76 472.014Z" fill="#91C997"/>
<path d="M553.997 401.667C553.997 401.667 541.99 420.077 607.429 429.066C672.868 438.055 665.809 516.392 646.107 552.03C646.107 552.03 611.809 643.147 685.511 723.663C688.87 727.34 692.388 730.836 696.043 734.218C701.558 739.303 707.347 744.047 713.316 748.587" stroke="#5B5B6D" stroke-width="0.5" stroke-linecap="round" stroke-linejoin="round"/>
<path d="M658.023 476.826C658.023 476.826 644.586 449.541 618.415 465.771C592.244 482.001 562.327 465.771 562.327 465.771" stroke="#5B5B6D" stroke-width="0.5" stroke-linecap="round" stroke-linejoin="round"/>
<path d="M656.661 523.383C656.661 523.383 653.529 503.203 629.265 509.218C605 515.234 593.605 490.219 593.605 490.219" stroke="#5B5B6D" stroke-width="0.5" stroke-linecap="round" stroke-linejoin="round"/>
<path d="M614.579 401.667C614.579 401.667 602.594 422.733 634.122 438.645" stroke="#5B5B6D" stroke-width="0.5" stroke-linecap="round" stroke-linejoin="round"/>
<path d="M663.743 434.695C663.743 434.695 675.251 471.287 659.862 490.196" stroke="#5B5B6D" stroke-width="0.5" stroke-linecap="round" stroke-linejoin="round"/>
<path d="M679.065 506.79C679.065 506.79 670.644 530.829 653.461 534.824" stroke="#5B5B6D" stroke-width="0.5" stroke-linecap="round" stroke-linejoin="round"/>
<path d="M692.23 335.157C692.23 335.157 705.122 263.721 768.609 258.773C832.096 253.801 842.016 242.883 842.016 242.883C842.016 242.883 865.826 294.479 822.177 323.262C778.528 352.023 754.718 376.97 747.772 406.661C740.827 436.352 677.34 382.781 692.23 335.157Z" fill="#91C997"/>
<path d="M821.769 265.991C821.769 265.991 833.572 284.083 769.245 292.913C704.918 301.743 711.841 378.763 731.225 413.812C731.225 413.812 770.834 519.048 671.915 602.219" stroke="#5B5B6D" stroke-width="0.5" stroke-linecap="round" stroke-linejoin="round"/>
<path d="M719.513 339.902C719.513 339.902 732.723 313.071 758.463 329.028C784.203 344.986 813.62 329.028 813.62 329.028" stroke="#5B5B6D" stroke-width="0.5" stroke-linecap="round" stroke-linejoin="round"/>
<path d="M720.852 385.664C720.852 385.664 723.939 365.824 747.795 371.726C771.651 377.628 782.841 353.044 782.841 353.044" stroke="#5B5B6D" stroke-width="0.5" stroke-linecap="round" stroke-linejoin="round"/>
<path d="M762.231 265.991C762.231 265.991 774.011 286.716 743.006 302.356" stroke="#5B5B6D" stroke-width="0.5" stroke-linecap="round" stroke-linejoin="round"/>
<path d="M713.884 298.497C713.884 298.497 702.58 334.476 717.697 353.067" stroke="#5B5B6D" stroke-width="0.5" stroke-linecap="round" stroke-linejoin="round"/>
<path d="M698.835 369.366C698.835 369.366 707.12 392.996 724.007 396.946" stroke="#5B5B6D" stroke-width="0.5" stroke-linecap="round" stroke-linejoin="round"/>
<path d="M661.246 583.56C661.246 583.56 713.066 512.896 784.589 541.157C856.088 569.418 872.658 562.813 872.658 562.813C872.658 562.813 871.137 631.411 808.558 639.492C745.956 647.574 706.915 662.011 683.672 690.567C660.406 719.1 619.913 627.348 661.269 583.56H661.246Z" fill="#B2D8D1"/>
<path d="M838.429 577.159C838.429 577.159 841.652 603.037 767.179 578.544C692.706 554.051 659.43 641.263 661.882 689.568" stroke="#5B5B6D" stroke-width="0.5" stroke-linecap="round" stroke-linejoin="round"/>
<path d="M688.302 603.173C688.302 603.173 716.857 581.063 736.332 612.026C755.807 642.988 796.165 641.24 796.165 641.24" stroke="#5B5B6D" stroke-width="0.5" stroke-linecap="round" stroke-linejoin="round"/>
<path d="M665.514 653.521C665.514 653.521 679.382 633.636 702.126 652.681C724.87 671.726 750.065 650.978 750.065 650.978" stroke="#5B5B6D" stroke-width="0.5" stroke-linecap="round" stroke-linejoin="round"/>
<path d="M773.807 545.606C773.807 545.606 775.6 574.322 733.699 574.866" stroke="#5B5B6D" stroke-width="0.5" stroke-linecap="round" stroke-linejoin="round"/>
<path d="M704.169 555.254C704.169 555.254 672.845 588.282 679.405 616.475" stroke="#5B5B6D" stroke-width="0.5" stroke-linecap="round" stroke-linejoin="round"/>
<path d="M650.26 624.147C650.26 624.147 646.719 654.156 662.971 667.39" stroke="#5B5B6D" stroke-width="0.5" stroke-linecap="round" stroke-linejoin="round"/>
</svg>
