<svg width="549" height="215" viewBox="0 0 549 215" fill="none" xmlns="http://www.w3.org/2000/svg">
<g clip-path="url(#clip0_518_358)">
<path d="M65.3701 198.07C94.5362 198.07 118.18 196.055 118.18 193.57C118.18 191.085 94.5362 189.07 65.3701 189.07C36.2039 189.07 12.5601 191.085 12.5601 193.57C12.5601 196.055 36.2039 198.07 65.3701 198.07Z" fill="#F4F2ED"/>
<path d="M110.37 39.9701C108.99 41.4801 107.76 43.1301 106.54 44.7601C103.18 49.2901 100.17 54.0601 97.3802 58.9601C92.9902 66.6701 89.2002 74.7201 85.9002 82.9501C81.4902 93.9601 77.9702 105.32 75.2502 116.85C71.8302 131.32 69.6602 146.07 68.5402 160.89C68.3802 162.97 68.2502 165.05 68.1302 167.13C68.0802 168.02 69.4602 168.01 69.5102 167.13C71.0602 139.78 76.0802 112.5 85.8502 86.8501C91.2202 72.7601 97.9902 58.9701 106.82 46.7001C108.24 44.7301 109.7 42.7301 111.34 40.9401C111.94 40.2901 110.97 39.3101 110.37 39.9701Z" fill="#457158"/>
<path d="M107.16 44.8601C107.44 42.7401 108.15 40.9801 108.98 39.3401C109.83 37.7101 110.86 36.2301 112.02 34.8701C113.19 33.5101 114.5 32.2801 115.99 31.2001C117.49 30.1301 119.12 29.1701 121.19 28.5901C120.92 30.7201 120.21 32.4701 119.37 34.1101C118.52 35.7401 117.49 37.2201 116.32 38.5701C115.15 39.9201 113.83 41.1501 112.35 42.2401C110.85 43.3101 109.22 44.2701 107.16 44.8501V44.8601Z" fill="#457158"/>
<path d="M103.61 49.6403C105.16 48.4703 106.8 47.6503 108.47 46.9403C110.14 46.2503 111.85 45.6903 113.58 45.2603C115.32 44.8303 117.08 44.5103 118.89 44.3403C120.7 44.1803 122.53 44.1403 124.45 44.4503C122.9 45.6303 121.26 46.4403 119.59 47.1503C117.92 47.8403 116.21 48.4003 114.47 48.8303C112.73 49.2603 110.97 49.5703 109.16 49.7403C107.35 49.9003 105.52 49.9403 103.6 49.6403H103.61Z" fill="#457158"/>
<path d="M104.05 49.8702C102.51 48.3902 101.51 46.7802 100.69 45.1302C99.8901 43.4802 99.3001 41.7802 98.9001 40.0302C98.5001 38.2902 98.2901 36.5002 98.3001 34.6602C98.3301 32.8202 98.5301 30.9402 99.2801 28.9302C100.83 30.4102 101.82 32.0202 102.65 33.6702C103.45 35.3202 104.04 37.0202 104.44 38.7702C104.83 40.5202 105.04 42.3002 105.04 44.1402C105.01 45.9802 104.81 47.8602 104.07 49.8702H104.05Z" fill="#457158"/>
<path d="M98.6504 57.67C100.23 56.22 101.89 55.33 103.59 54.61C105.29 53.91 107.02 53.43 108.79 53.14C110.56 52.85 112.35 52.75 114.19 52.87C116.03 53.01 117.89 53.33 119.85 54.21C118.27 55.66 116.61 56.56 114.91 57.28C113.21 57.98 111.48 58.46 109.71 58.74C107.94 59.02 106.15 59.12 104.31 59C102.47 58.85 100.61 58.54 98.6504 57.67Z" fill="#457158"/>
<path d="M98.6805 57.53C97.3005 56.04 96.3705 54.43 95.5805 52.78C94.8005 51.13 94.2105 49.44 93.7605 47.7C93.3105 45.97 93.0205 44.19 92.9105 42.38C92.8105 40.56 92.8605 38.7 93.3605 36.72C94.7505 38.21 95.6805 39.82 96.4705 41.47C97.2505 43.12 97.8405 44.81 98.2805 46.55C98.7205 48.28 99.0105 50.06 99.1205 51.88C99.2105 53.7 99.1705 55.56 98.6805 57.53Z" fill="#457158"/>
<path d="M94.5103 64.9199C96.2403 63.9699 98.0002 63.4299 99.7702 62.9999C101.54 62.5899 103.31 62.3399 105.1 62.2199C106.89 62.0999 108.68 62.1299 110.49 62.3099C112.3 62.5099 114.11 62.8299 115.95 63.5499C114.22 64.4999 112.46 65.0499 110.69 65.4699C108.92 65.8799 107.15 66.1299 105.36 66.2399C103.57 66.3499 101.78 66.3299 99.9703 66.1499C98.1603 65.9499 96.3503 65.6299 94.5103 64.9199Z" fill="#457158"/>
<path d="M95.13 65.7301C93.41 64.4501 92.23 62.9801 91.2 61.4501C90.2 59.9101 89.4 58.3001 88.79 56.6201C88.17 54.9401 87.74 53.1901 87.52 51.3701C87.32 49.5401 87.28 47.6501 87.78 45.5601C89.5 46.8401 90.69 48.3101 91.71 49.8401C92.71 51.3801 93.51 52.9901 94.12 54.6801C94.73 56.3601 95.16 58.1101 95.38 59.9301C95.58 61.7601 95.62 63.6501 95.13 65.7401V65.7301Z" fill="#457158"/>
<path d="M89.8804 75.03C91.2804 73.41 92.8404 72.34 94.4404 71.43C96.0504 70.54 97.7204 69.87 99.4404 69.38C101.16 68.89 102.94 68.59 104.77 68.5C106.61 68.43 108.5 68.54 110.54 69.19C109.14 70.81 107.58 71.89 105.98 72.8C104.37 73.69 102.7 74.36 100.98 74.84C99.2604 75.32 97.4804 75.62 95.6504 75.71C93.8104 75.77 91.9204 75.67 89.8804 75.03Z" fill="#457158"/>
<path d="M90.0802 74.8601C88.6402 73.49 87.5902 71.98 86.6602 70.42C85.7402 68.86 84.9702 67.23 84.3302 65.56C83.6902 63.89 83.1802 62.17 82.8302 60.39C82.4902 58.6 82.2702 56.77 82.4302 54.8C83.8702 56.17 84.9202 57.6801 85.8602 59.2401C86.7802 60.8001 87.5502 62.43 88.1802 64.1C88.8102 65.77 89.3202 67.5 89.6802 69.28C90.0202 71.07 90.2402 72.9001 90.0802 74.8701V74.8601Z" fill="#457158"/>
<path d="M85.7705 85.12C87.2305 83.75 88.8205 82.8 90.4405 81.97C92.0705 81.16 93.7405 80.52 95.4605 80.01C97.1805 79.51 98.9405 79.15 100.751 78.96C102.561 78.78 104.411 78.74 106.391 79.11C104.931 80.49 103.341 81.44 101.721 82.27C100.091 83.08 98.4205 83.72 96.7005 84.22C94.9805 84.72 93.2205 85.08 91.4105 85.27C89.6005 85.44 87.7505 85.49 85.7805 85.12H85.7705Z" fill="#457158"/>
<path d="M86.4004 85.16C84.5404 84.1 83.1804 82.79 81.9704 81.4C80.7804 80 79.7904 78.49 78.9704 76.9C78.1504 75.31 77.5004 73.63 77.0604 71.85C76.6304 70.06 76.3604 68.19 76.5904 66.05C78.4604 67.1 79.8204 68.42 81.0304 69.81C82.2204 71.21 83.2104 72.72 84.0204 74.31C84.8304 75.9 85.4804 77.58 85.9304 79.37C86.3604 81.16 86.6304 83.03 86.4004 85.16Z" fill="#457158"/>
<path d="M82.7007 94.16C83.8107 92.59 85.1107 91.49 86.4607 90.54C87.8207 89.6 89.2607 88.86 90.7507 88.27C92.2507 87.68 93.8107 87.25 95.4407 87.02C97.0807 86.8 98.7807 86.72 100.671 87.13C99.5607 88.71 98.2607 89.8 96.9107 90.76C95.5507 91.7 94.1107 92.44 92.6207 93.03C91.1207 93.61 89.5607 94.04 87.9307 94.28C86.2907 94.5 84.5907 94.58 82.7107 94.18L82.7007 94.16Z" fill="#457158"/>
<path d="M82.7004 94.03C81.2104 92.98 80.0804 91.74 79.0804 90.44C78.0904 89.14 77.2404 87.76 76.5204 86.32C75.8004 84.88 75.2104 83.38 74.7704 81.8C74.3404 80.22 74.0304 78.57 74.0904 76.74C75.5904 77.79 76.7104 79.03 77.7204 80.32C78.7104 81.62 79.5604 83 80.2704 84.44C80.9804 85.88 81.5704 87.38 82.0204 88.96C82.4504 90.55 82.7604 92.19 82.7004 94.01V94.03Z" fill="#457158"/>
<path d="M73.5201 167.69C73.2301 162.96 74.2401 157.98 75.4401 153.44C78.6501 141.33 85.1701 130.27 93.4801 120.97C100.49 113.13 108.75 106.5 117.62 100.87C118.37 100.4 117.68 99.2001 116.92 99.6801C102.6 108.77 89.7301 120.59 81.3401 135.48C76.6501 143.8 73.3301 153.05 72.3501 162.58C72.1801 164.26 72.0301 165.99 72.1401 167.69C72.1901 168.57 73.5701 168.58 73.5201 167.69Z" fill="#72A265"/>
<path d="M109.45 105.44C110.48 103.75 111.74 102.4 113.07 101.16C114.4 99.9302 115.83 98.8302 117.32 97.8502C118.82 96.8702 120.39 96.0102 122.06 95.2902C123.73 94.5802 125.47 93.9702 127.44 93.7102C126.41 95.4102 125.15 96.7602 123.83 98.0002C122.5 99.2302 121.07 100.33 119.57 101.3C118.07 102.28 116.49 103.14 114.83 103.86C113.16 104.57 111.42 105.18 109.45 105.44Z" fill="#72A265"/>
<path d="M105.19 108.94C106.96 108.02 108.71 107.57 110.45 107.26C112.2 106.97 113.94 106.86 115.68 106.91C117.42 106.96 119.15 107.17 120.87 107.57C122.6 107.98 124.32 108.54 126.02 109.57C124.25 110.5 122.5 110.95 120.75 111.26C119 111.55 117.26 111.66 115.53 111.61C113.79 111.55 112.06 111.34 110.34 110.95C108.61 110.53 106.89 109.98 105.19 108.95V108.94Z" fill="#72A265"/>
<path d="M104.73 109.76C104.59 108.03 104.76 106.39 105.01 104.78C105.28 103.18 105.66 101.61 106.15 100.08C106.64 98.5501 107.23 97.0401 107.94 95.5801C108.66 94.1201 109.47 92.6901 110.59 91.3601C110.73 93.0901 110.57 94.7301 110.31 96.3401C110.04 97.9401 109.66 99.5101 109.17 101.04C108.68 102.57 108.09 104.07 107.38 105.54C106.66 107 105.85 108.43 104.73 109.76Z" fill="#72A265"/>
<path d="M100.53 112.96C102.02 112.63 103.46 112.57 104.88 112.59C106.3 112.62 107.71 112.77 109.1 113C110.49 113.23 111.87 113.56 113.22 114C114.57 114.45 115.91 114.98 117.21 115.78C115.72 116.11 114.28 116.17 112.86 116.15C111.44 116.11 110.03 115.97 108.64 115.74C107.25 115.5 105.88 115.17 104.52 114.74C103.17 114.29 101.83 113.76 100.53 112.96Z" fill="#72A265"/>
<path d="M100.97 112.91C100.26 111.32 99.9502 109.76 99.7702 108.22C99.6002 106.68 99.6002 105.15 99.7302 103.63C99.8602 102.11 100.14 100.61 100.58 99.1202C101.03 97.6302 101.61 96.1602 102.6 94.7202C103.32 96.3102 103.62 97.8702 103.81 99.4102C103.97 100.95 103.98 102.48 103.84 104C103.7 105.52 103.43 107.02 102.99 108.51C102.54 110 101.96 111.48 100.98 112.92L100.97 112.91Z" fill="#72A265"/>
<path d="M96.39 116.54C95.2 115.1 94.44 113.58 93.81 112.04C93.2 110.5 92.76 108.92 92.46 107.32C92.16 105.72 92.02 104.09 92.04 102.43C92.08 100.77 92.25 99.0801 92.86 97.3101C94.06 98.7501 94.82 100.27 95.45 101.81C96.06 103.35 96.5 104.93 96.79 106.53C97.08 108.13 97.23 109.76 97.2 111.43C97.16 113.09 96.99 114.78 96.38 116.55L96.39 116.54Z" fill="#72A265"/>
<path d="M96.5801 116.46C98.3501 115.86 100.04 115.69 101.7 115.65C103.36 115.63 104.99 115.78 106.59 116.07C108.19 116.36 109.77 116.81 111.31 117.42C112.85 118.05 114.37 118.82 115.8 120.01C114.03 120.62 112.34 120.79 110.68 120.82C109.02 120.84 107.39 120.69 105.79 120.39C104.19 120.09 102.61 119.65 101.07 119.03C99.5301 118.4 98.0101 117.63 96.5801 116.44V116.46Z" fill="#72A265"/>
<path d="M91.7103 122.53C90.5203 121.09 89.7603 119.57 89.1303 118.03C88.5203 116.49 88.0803 114.91 87.7803 113.31C87.4803 111.71 87.3403 110.08 87.3603 108.42C87.4003 106.76 87.5703 105.07 88.1803 103.3C89.3803 104.74 90.1403 106.25 90.7703 107.8C91.3803 109.34 91.8203 110.92 92.1103 112.52C92.4003 114.12 92.5503 115.75 92.5203 117.41C92.4803 119.07 92.3103 120.76 91.7003 122.53H91.7103Z" fill="#72A265"/>
<path d="M91.9004 122.45C93.6704 121.85 95.3604 121.68 97.0204 121.64C98.6804 121.62 100.31 121.77 101.91 122.06C103.51 122.35 105.09 122.8 106.63 123.41C108.17 124.04 109.69 124.81 111.12 126C109.35 126.61 107.66 126.78 106 126.81C104.34 126.83 102.71 126.68 101.11 126.38C99.5104 126.08 97.9304 125.64 96.3904 125.02C94.8504 124.39 93.3304 123.62 91.9004 122.43V122.45Z" fill="#72A265"/>
<path d="M86.7404 129.55C85.4104 128.24 84.4904 126.81 83.7004 125.35C82.9304 123.88 82.3304 122.36 81.8604 120.79C81.4004 119.23 81.0804 117.62 80.9304 115.97C80.8004 114.31 80.7904 112.61 81.2104 110.79C82.5504 112.09 83.4704 113.52 84.2504 114.99C85.0204 116.46 85.6204 117.98 86.0804 119.55C86.5404 121.11 86.8504 122.72 87.0004 124.37C87.1304 126.03 87.1404 127.73 86.7204 129.55H86.7404Z" fill="#72A265"/>
<path d="M85.77 128.84C87.45 128.26 89.1 128.03 90.75 127.89C92.39 127.77 94.03 127.78 95.65 127.9C97.27 128.03 98.89 128.27 100.5 128.65C102.1 129.04 103.7 129.53 105.27 130.37C103.59 130.95 101.94 131.19 100.29 131.32C98.65 131.44 97.01 131.43 95.39 131.3C93.77 131.17 92.15 130.93 90.54 130.55C88.94 130.16 87.34 129.67 85.77 128.83V128.84Z" fill="#72A265"/>
<path d="M83.0101 135.44C81.5301 134.29 80.4601 132.98 79.5101 131.61C78.5801 130.24 77.8001 128.79 77.1701 127.29C76.5301 125.79 76.0401 124.23 75.7001 122.6C75.3801 120.97 75.1801 119.28 75.3901 117.42C76.8701 118.56 77.9401 119.88 78.8901 121.25C79.8201 122.62 80.6001 124.07 81.2301 125.57C81.8601 127.07 82.3601 128.63 82.7001 130.26C83.0201 131.89 83.2201 133.58 83.0201 135.44H83.0101Z" fill="#72A265"/>
<path d="M81.9702 134.85C83.5702 134.09 85.1902 133.66 86.8102 133.34C88.4302 133.03 90.0502 132.86 91.6802 132.8C93.3102 132.74 94.9402 132.8 96.5802 132.99C98.2202 133.19 99.8602 133.5 101.51 134.15C99.9102 134.92 98.2902 135.34 96.6702 135.67C95.0502 135.98 93.4302 136.15 91.8002 136.21C90.1702 136.27 88.5402 136.21 86.9002 136.02C85.2602 135.81 83.6202 135.51 81.9702 134.86V134.85Z" fill="#72A265"/>
<path d="M79.0202 143.42C77.3302 142.62 76.0002 141.56 74.7802 140.43C73.5702 139.29 72.5102 138.05 71.5602 136.72C70.6102 135.39 69.7902 133.98 69.1202 132.46C68.4502 130.93 67.9002 129.33 67.7002 127.47C69.3902 128.27 70.7202 129.32 71.9402 130.46C73.1502 131.6 74.2102 132.84 75.1502 134.18C76.0902 135.51 76.9102 136.93 77.5902 138.44C78.2502 139.97 78.8102 141.57 79.0102 143.43L79.0202 143.42Z" fill="#72A265"/>
<path d="M77.8904 143.06C79.2904 141.97 80.7804 141.21 82.2904 140.54C83.8104 139.89 85.3504 139.37 86.9304 138.96C88.5104 138.55 90.1104 138.26 91.7504 138.09C93.3904 137.94 95.0604 137.89 96.8204 138.17C95.4204 139.27 93.9304 140.03 92.4204 140.69C90.9004 141.34 89.3604 141.86 87.7804 142.26C86.2004 142.66 84.5904 142.96 82.9504 143.12C81.3104 143.27 79.6404 143.32 77.8804 143.05L77.8904 143.06Z" fill="#72A265"/>
<path d="M44.2601 42.0501C48.2301 46.0401 51.3801 51.0501 54.1901 55.8801C61.7801 68.9201 66.6401 83.4701 69.3001 98.2901C71.4801 110.42 72.1401 122.78 71.6601 135.08C71.6301 135.97 73.0201 135.42 73.0601 134.53C73.8501 114.49 71.5101 94.7401 64.8101 75.7701C61.0301 65.0601 55.9101 54.6301 49.0101 45.5801C47.8301 44.0301 46.6101 42.4601 45.2301 41.0701C44.6001 40.4401 43.6301 41.4101 44.2601 42.0401V42.0501Z" fill="#5C8A5C"/>
<path d="M50.2902 48.1701C48.2602 47.5001 46.6702 46.4701 45.2102 45.3401C43.7702 44.2001 42.5102 42.9101 41.4002 41.5101C40.2902 40.1101 39.3302 38.5901 38.5402 36.9301C37.7702 35.2601 37.1402 33.4701 36.9502 31.3401C38.9902 32.0101 40.5802 33.0301 42.0302 34.1601C43.4702 35.3001 44.7302 36.5901 45.8402 37.9901C46.9502 39.4001 47.9102 40.9201 48.6902 42.5801C49.4602 44.2601 50.0902 46.0401 50.2802 48.1701H50.2902Z" fill="#5C8A5C"/>
<path d="M54.1601 55.0401C53.8301 53.1201 53.8601 51.2901 53.9901 49.4801C54.1401 47.6801 54.4301 45.9101 54.8401 44.1601C55.2501 42.4201 55.7801 40.7001 56.4601 39.0301C57.1501 37.3501 57.9501 35.7001 59.1001 34.1401C59.4301 36.0601 59.4101 37.8901 59.2701 39.7001C59.1201 41.5001 58.8301 43.2701 58.4201 45.0201C58.0101 46.7601 57.4701 48.4701 56.8001 50.1501C56.1101 51.8301 55.3101 53.4801 54.1601 55.0401Z" fill="#5C8A5C"/>
<path d="M54.4602 54.5201C52.5202 54.8701 50.6802 54.8301 48.8702 54.6801C47.0602 54.5101 45.3002 54.2001 43.5602 53.7601C41.8302 53.3201 40.1302 52.7401 38.4702 52.0101C36.8102 51.2701 35.1902 50.4101 33.6602 49.1701C35.6002 48.8201 37.4402 48.8501 39.2502 49.0001C41.0602 49.1701 42.8202 49.4801 44.5502 49.9301C46.2802 50.3801 47.9802 50.9501 49.6402 51.6801C51.3002 52.4201 52.9302 53.2801 54.4502 54.5101L54.4602 54.5201Z" fill="#5C8A5C"/>
<path d="M59.2604 64.3702C58.8104 62.4802 58.7204 60.6502 58.7404 58.8302C58.7804 57.0202 58.9504 55.2402 59.2504 53.4702C59.5504 51.7102 59.9704 49.9602 60.5404 48.2402C61.1204 46.5202 61.8104 44.8302 62.8704 43.1902C63.3204 45.0802 63.4104 46.9102 63.3904 48.7302C63.3504 50.5402 63.1804 52.3202 62.8704 54.0902C62.5704 55.8502 62.1404 57.6002 61.5704 59.3202C60.9904 61.0402 60.3004 62.7302 59.2404 64.3702H59.2604Z" fill="#5C8A5C"/>
<path d="M59.6403 64.0603C57.6603 64.8803 55.7903 65.1403 53.9503 65.2303C52.1103 65.3003 50.3203 65.1603 48.5603 64.8203C46.8003 64.4903 45.0803 63.9603 43.4003 63.2203C41.7203 62.4503 40.0803 61.5203 38.5503 60.0203C40.5303 59.2003 42.4003 58.9303 44.2403 58.8403C46.0803 58.7703 47.8703 58.9103 49.6303 59.2503C51.3903 59.5903 53.1103 60.1203 54.7903 60.8603C56.4703 61.6303 58.1103 62.5603 59.6503 64.0503L59.6403 64.0603Z" fill="#5C8A5C"/>
<path d="M63.0798 74.9001C62.6498 72.8901 62.6798 71.0301 62.8598 69.2101C63.0498 67.4001 63.4198 65.6401 63.9498 63.9301C64.4798 62.2201 65.1598 60.5601 66.0298 58.9501C66.9198 57.3501 67.9398 55.8001 69.4398 54.3801C69.8698 56.3901 69.8398 58.2501 69.6698 60.0701C69.4798 61.8801 69.1098 63.6401 68.5798 65.3501C68.0498 67.0601 67.3598 68.7201 66.4898 70.3201C65.5998 71.9201 64.5798 73.4701 63.0898 74.8901L63.0798 74.9001Z" fill="#5C8A5C"/>
<path d="M63.86 74.7702C61.79 75.3202 59.9 75.3402 58.06 75.1902C56.23 75.0202 54.47 74.6402 52.77 74.0802C51.07 73.5202 49.43 72.7702 47.86 71.8202C46.3 70.8402 44.79 69.7002 43.46 68.0202C45.53 67.4602 47.42 67.4402 49.26 67.5902C51.09 67.7602 52.85 68.1402 54.55 68.7002C56.25 69.2702 57.89 70.0102 59.45 70.9702C61.01 71.9502 62.52 73.0902 63.85 74.7702H63.86Z" fill="#5C8A5C"/>
<path d="M66.31 85.11C66.08 83.07 66.29 81.22 66.63 79.42C66.99 77.63 67.53 75.92 68.22 74.26C68.91 72.61 69.75 71.02 70.77 69.51C71.8 68 72.98 66.55 74.6 65.29C74.84 67.33 74.63 69.18 74.29 70.98C73.93 72.77 73.39 74.48 72.7 76.13C72.01 77.78 71.16 79.37 70.15 80.88C69.11 82.39 67.94 83.84 66.33 85.1L66.31 85.11Z" fill="#5C8A5C"/>
<path d="M67.0899 85.0601C64.9799 85.4101 63.0999 85.2501 61.2799 84.9301C59.4699 84.5901 57.7599 84.0401 56.1199 83.3201C54.4799 82.6001 52.9199 81.7001 51.4499 80.6001C49.9899 79.4801 48.5999 78.2001 47.4399 76.3901C49.5499 76.0301 51.4399 76.1901 53.2499 76.5201C55.0599 76.8601 56.7699 77.4101 58.4099 78.1301C60.0499 78.8601 61.6099 79.7501 63.0799 80.8601C64.5399 81.9801 65.9299 83.2601 67.0999 85.0601H67.0899Z" fill="#5C8A5C"/>
<path d="M69.76 97.25C69.73 95.35 70.1 93.67 70.58 92.05C71.08 90.44 71.73 88.91 72.52 87.45C73.31 85.99 74.23 84.61 75.3 83.31C76.39 82.02 77.6 80.79 79.21 79.78C79.24 81.68 78.88 83.37 78.4 84.99C77.9 86.6 77.25 88.13 76.46 89.59C75.67 91.04 74.75 92.43 73.67 93.73C72.58 95.02 71.37 96.25 69.76 97.26V97.25Z" fill="#5C8A5C"/>
<path d="M70.4899 97.2801C68.5099 97.4101 66.7999 97.0801 65.1499 96.6201C63.5199 96.1401 61.9899 95.4801 60.5499 94.6701C59.1099 93.8601 57.7599 92.8801 56.4999 91.7301C55.2599 90.5601 54.0999 89.2501 53.1899 87.4901C55.1699 87.3601 56.8899 87.6801 58.5299 88.1401C60.1599 88.6201 61.6899 89.2801 63.1299 90.1001C64.5699 90.9201 65.9199 91.8901 67.1699 93.0401C68.4099 94.2101 69.5699 95.5201 70.4799 97.2801H70.4899Z" fill="#5C8A5C"/>
<path d="M25.6398 83.66C25.9398 83.87 25.9698 83.9 26.3898 84.25C27.1698 84.89 27.9298 85.57 28.6698 86.27C31.4698 88.91 34.0198 91.82 36.3698 94.86C44.9398 105.99 50.8598 119.03 54.7298 132.48C58.0198 143.94 59.8198 155.79 60.5298 167.68C60.5798 168.56 61.9598 168.57 61.9098 167.68C60.7698 148.49 56.7898 129.27 48.3898 111.89C43.8198 102.44 37.9398 93.37 30.3998 86.01C29.1198 84.76 27.7898 83.51 26.3398 82.46C25.6198 81.94 24.9298 83.14 25.6398 83.65V83.66Z" fill="#72A265"/>
<path d="M31.6198 88.51C29.4998 88.2 27.7598 87.47 26.1298 86.61C24.5198 85.73 23.0498 84.69 21.7098 83.5C20.3698 82.31 19.1598 80.98 18.0998 79.48C17.0498 77.96 16.1198 76.32 15.5698 74.25C17.6898 74.56 19.4398 75.29 21.0698 76.15C22.6798 77.03 24.1498 78.07 25.4898 79.26C26.8298 80.45 28.0298 81.78 29.0998 83.28C30.1498 84.8 31.0798 86.44 31.6398 88.51H31.6198Z" fill="#72A265"/>
<path d="M37.2896 96.0199C36.6196 94.2299 36.3396 92.4799 36.1796 90.7399C36.0396 88.9999 36.0496 87.2699 36.1996 85.5599C36.3496 83.8399 36.6296 82.1399 37.0696 80.4499C37.5296 78.7599 38.0996 77.0799 39.0796 75.4399C39.7596 77.2299 40.0396 78.9799 40.1896 80.7199C40.3296 82.4599 40.3196 84.1899 40.1596 85.8999C40.0096 87.6099 39.7196 89.3199 39.2796 91.0099C38.8196 92.6999 38.2496 94.3799 37.2696 96.0199H37.2896Z" fill="#72A265"/>
<path d="M37.3897 94.23C35.6897 95.09 33.9697 95.55 32.2597 95.9C30.5397 96.23 28.8297 96.4 27.1097 96.44C25.3897 96.48 23.6697 96.38 21.9397 96.12C20.2097 95.85 18.4797 95.45 16.7397 94.66C18.4397 93.79 20.1597 93.33 21.8697 92.99C23.5897 92.66 25.2997 92.49 27.0197 92.46C28.7397 92.43 30.4597 92.53 32.1897 92.78C33.9197 93.05 35.6497 93.45 37.3897 94.24V94.23Z" fill="#72A265"/>
<path d="M42.7197 102.92C41.7797 101.11 41.3697 99.3501 41.1097 97.6001C40.8697 95.8501 40.8497 94.1201 40.9897 92.4101C41.1397 90.6901 41.4697 89.0001 41.9997 87.3101C42.5597 85.6301 43.2697 83.9701 44.5197 82.3501C45.4597 84.1601 45.8797 85.9201 46.1397 87.6801C46.3797 89.4301 46.4097 91.1601 46.2497 92.8701C46.0997 94.5801 45.7697 96.2801 45.2297 97.9701C44.6697 99.6501 43.9597 101.31 42.7197 102.93V102.92Z" fill="#72A265"/>
<path d="M43.3697 102.32C41.6697 103.18 39.9497 103.64 38.2397 103.99C36.5197 104.32 34.8097 104.49 33.0897 104.53C31.3697 104.57 29.6497 104.47 27.9197 104.21C26.1897 103.94 24.4597 103.54 22.7197 102.75C24.4197 101.88 26.1397 101.42 27.8497 101.08C29.5697 100.75 31.2797 100.58 32.9997 100.55C34.7197 100.52 36.4397 100.62 38.1697 100.88C39.8997 101.15 41.6297 101.55 43.3697 102.34V102.32Z" fill="#72A265"/>
<path d="M47.6301 112.66C47.4301 110.76 47.6001 109 47.8801 107.27C48.1801 105.55 48.6201 103.88 49.1901 102.26C49.7601 100.64 50.4601 99.0599 51.3101 97.5299C52.1701 96.0099 53.1501 94.5299 54.5101 93.1799C54.7201 95.0799 54.5501 96.8499 54.2701 98.5699C53.9701 100.29 53.5301 101.96 52.9501 103.58C52.3701 105.2 51.6701 106.78 50.8201 108.31C49.9601 109.83 48.9801 111.31 47.6301 112.66Z" fill="#72A265"/>
<path d="M48.1701 112.21C46.3101 112.62 44.5301 112.64 42.7901 112.54C41.0501 112.43 39.3401 112.17 37.6601 111.77C35.9801 111.38 34.3401 110.85 32.7301 110.17C31.1301 109.47 29.5501 108.66 28.0601 107.46C29.9301 107.05 31.7001 107.03 33.4501 107.12C35.1901 107.23 36.9001 107.49 38.5701 107.89C40.2401 108.29 41.8901 108.82 43.5001 109.5C45.1001 110.2 46.6801 111.01 48.1701 112.21Z" fill="#72A265"/>
<path d="M51.4297 120.75C51.3397 118.84 51.6197 117.09 51.9997 115.39C52.3997 113.69 52.9497 112.05 53.6097 110.47C54.2797 108.88 55.0697 107.35 56.0097 105.88C56.9597 104.41 58.0297 103 59.4597 101.73C59.5497 103.64 59.2797 105.39 58.8897 107.1C58.4897 108.8 57.9397 110.44 57.2697 112.02C56.5997 113.6 55.7997 115.14 54.8597 116.61C53.9097 118.08 52.8397 119.49 51.4097 120.76L51.4297 120.75Z" fill="#72A265"/>
<path d="M51.8596 120.83C49.8896 121.41 48.0696 121.48 46.2996 121.38C44.5396 121.27 42.8296 120.95 41.1896 120.46C39.5396 119.97 37.9496 119.29 36.4096 118.42C34.8796 117.52 33.3996 116.47 32.0796 114.89C34.0496 114.3 35.8696 114.24 37.6396 114.33C39.3996 114.44 41.1096 114.76 42.7496 115.26C44.3996 115.76 45.9896 116.43 47.5296 117.31C49.0596 118.21 50.5396 119.26 51.8596 120.84V120.83Z" fill="#72A265"/>
<path d="M54.6398 130.59C54.4898 128.49 54.8498 126.69 55.3498 124.98C55.8798 123.28 56.5998 121.71 57.4898 120.24C58.3798 118.77 59.4498 117.4 60.7098 116.16C61.9898 114.93 63.4298 113.79 65.3798 112.95C65.5298 115.06 65.1798 116.86 64.6698 118.57C64.1398 120.26 63.4198 121.84 62.5198 123.31C61.6198 124.78 60.5498 126.14 59.2898 127.39C57.9998 128.62 56.5698 129.76 54.6298 130.6L54.6398 130.59Z" fill="#72A265"/>
<path d="M55.5997 130.69C53.5597 130.98 51.7597 130.77 50.0197 130.42C48.2897 130.05 46.6597 129.48 45.0997 128.76C43.5397 128.03 42.0597 127.13 40.6697 126.04C39.2897 124.93 37.9797 123.67 36.9097 121.91C38.9497 121.62 40.7597 121.82 42.4897 122.17C44.2197 122.54 45.8497 123.11 47.4097 123.84C48.9697 124.58 50.4497 125.48 51.8297 126.57C53.2097 127.68 54.5197 128.94 55.5997 130.7V130.69Z" fill="#72A265"/>
<path d="M12.1899 112.95C12.3199 113 12.0399 112.88 12.2999 113C12.5499 113.11 12.7899 113.22 13.0399 113.33C13.9099 113.72 14.7699 114.12 15.6199 114.54C18.6299 116.01 21.5799 117.62 24.4599 119.34C33.1299 124.51 41.2799 130.72 48.1299 138.16C52.5799 143 56.4299 148.39 59.3099 154.32C59.6999 155.12 60.8899 154.42 60.4999 153.62C51.7399 135.65 34.5699 122.41 16.9799 113.68C15.5299 112.96 14.0599 112.25 12.5599 111.63C11.7399 111.29 11.3799 112.62 12.1899 112.96V112.95Z" fill="#457158"/>
<path d="M20.14 115.79C18.05 116.27 16.16 116.22 14.33 116.01C12.51 115.78 10.76 115.34 9.08 114.72C7.4 114.1 5.79 113.3 4.26 112.29C2.73 111.26 1.27 110.06 0 108.33C2.09 107.84 3.98 107.89 5.81 108.1C7.63 108.33 9.38 108.77 11.06 109.4C12.74 110.03 14.35 110.83 15.88 111.84C17.41 112.87 18.87 114.07 20.14 115.79Z" fill="#457158"/>
<path d="M27.6096 121.31C26.4296 119.81 25.6296 118.23 24.9496 116.62C24.2896 115.01 23.7696 113.36 23.3896 111.68C23.0096 110 22.7596 108.29 22.6696 106.55C22.5896 104.8 22.6296 103.03 23.0596 101.17C24.2496 102.67 25.0496 104.25 25.7296 105.86C26.3896 107.47 26.9096 109.12 27.2796 110.8C27.6596 112.48 27.8996 114.19 27.9996 115.93C28.0796 117.68 28.0396 119.45 27.6096 121.31Z" fill="#457158"/>
<path d="M28.5698 120.19C27.2098 121.53 25.7198 122.49 24.1898 123.34C22.6598 124.17 21.0698 124.86 19.4398 125.42C17.8098 125.98 16.1398 126.41 14.4198 126.69C12.6898 126.96 10.9198 127.11 9.02979 126.88C10.3898 125.54 11.8798 124.57 13.4098 123.73C14.9398 122.9 16.5298 122.21 18.1598 121.66C19.7898 121.11 21.4598 120.68 23.1898 120.4C24.9198 120.14 26.6898 119.98 28.5798 120.21L28.5698 120.19Z" fill="#457158"/>
<path d="M36.4299 127.41C35.2499 125.91 34.4499 124.33 33.7699 122.72C33.1099 121.11 32.5899 119.46 32.2099 117.78C31.8299 116.1 31.5799 114.39 31.4899 112.65C31.4099 110.9 31.4499 109.13 31.8799 107.27C33.0699 108.77 33.8699 110.35 34.5499 111.96C35.2099 113.58 35.7299 115.22 36.0999 116.9C36.4799 118.58 36.7199 120.29 36.8199 122.03C36.8999 123.78 36.8599 125.55 36.4299 127.41Z" fill="#457158"/>
<path d="M37.3901 126.28C36.0301 127.62 34.5401 128.58 33.0101 129.43C31.4801 130.26 29.8901 130.95 28.2601 131.51C26.6301 132.07 24.9601 132.5 23.2401 132.78C21.5101 133.05 19.7401 133.2 17.8501 132.97C19.2101 131.63 20.7001 130.66 22.2301 129.82C23.7601 128.99 25.3501 128.3 26.9801 127.75C28.6101 127.2 30.2801 126.77 32.0101 126.49C33.7401 126.23 35.5101 126.07 37.4001 126.3L37.3901 126.28Z" fill="#457158"/>
<path d="M43.1496 133.1C42.1296 131.49 41.4996 129.83 40.9896 128.16C40.4996 126.49 40.1596 124.79 39.9496 123.08C39.7396 121.37 39.6796 119.65 39.7596 117.9C39.8596 116.15 40.0896 114.39 40.7096 112.59C41.7396 114.2 42.3696 115.86 42.8696 117.53C43.3596 119.21 43.6996 120.9 43.8996 122.61C44.0996 124.32 44.1696 126.05 44.0796 127.79C43.9796 129.54 43.7496 131.3 43.1396 133.1H43.1496Z" fill="#457158"/>
<path d="M44.2198 132.08C42.7298 133.27 41.1398 134.07 39.5398 134.76C37.9298 135.43 36.2798 135.95 34.5998 136.34C32.9198 136.73 31.2098 136.98 29.4698 137.08C27.7198 137.17 25.9498 137.13 24.0898 136.71C25.5798 135.52 27.1598 134.71 28.7698 134.03C30.3798 133.36 32.0298 132.84 33.7098 132.46C35.3898 132.08 37.0998 131.82 38.8398 131.72C40.5898 131.64 42.3598 131.67 44.2198 132.09V132.08Z" fill="#457158"/>
<path d="M33.9399 154.82V171.51C33.9399 184.24 44.3599 194.66 57.0899 194.66H76.8599C89.5899 194.66 100.01 184.24 100.01 171.51V154.82H33.9399Z" fill="#B4D9D3"/>
<path d="M99.9999 163.28H33.9399V164.38H99.9999V163.28Z" fill="white"/>
<path d="M93.39 174.15C91.19 174.15 90.09 172.68 89.2 171.5C88.36 170.37 87.83 169.74 86.78 169.74C85.73 169.74 85.2 170.38 84.36 171.5C83.48 172.68 82.38 174.15 80.17 174.15C77.96 174.15 76.87 172.68 75.99 171.5C75.15 170.37 74.62 169.74 73.57 169.74C72.52 169.74 71.99 170.38 71.15 171.5C70.27 172.68 69.17 174.15 66.96 174.15C64.75 174.15 63.66 172.68 62.78 171.5C61.94 170.37 61.41 169.74 60.36 169.74C59.31 169.74 58.78 170.38 57.94 171.5C57.06 172.68 55.96 174.15 53.76 174.15C51.56 174.15 50.46 172.68 49.58 171.5C48.74 170.37 48.21 169.74 47.16 169.74C46.11 169.74 45.58 170.38 44.74 171.5C43.86 172.68 42.76 174.15 40.56 174.15C38.36 174.15 37.26 172.68 36.38 171.5C35.54 170.37 35.01 169.74 33.96 169.74V167.54C36.16 167.54 37.26 169.01 38.14 170.19C38.98 171.32 39.51 171.95 40.56 171.95C41.61 171.95 42.14 171.31 42.98 170.19C43.86 169.01 44.96 167.54 47.16 167.54C49.36 167.54 50.46 169.01 51.34 170.19C52.18 171.32 52.71 171.95 53.76 171.95C54.81 171.95 55.34 171.31 56.18 170.19C57.06 169.01 58.16 167.54 60.36 167.54C62.56 167.54 63.66 169.01 64.54 170.19C65.38 171.32 65.91 171.95 66.96 171.95C68.01 171.95 68.54 171.31 69.38 170.19C70.26 169.01 71.36 167.54 73.57 167.54C75.78 167.54 76.87 169.01 77.75 170.19C78.59 171.32 79.12 171.95 80.17 171.95C81.22 171.95 81.75 171.31 82.59 170.19C83.47 169.01 84.57 167.54 86.78 167.54C88.99 167.54 90.08 169.01 90.97 170.19C91.81 171.32 92.34 171.95 93.39 171.95C94.44 171.95 94.97 171.31 95.82 170.19C96.7 169.01 97.8 167.54 100.01 167.54V169.74C98.96 169.74 98.43 170.38 97.58 171.5C96.7 172.68 95.6 174.15 93.39 174.15Z" fill="white"/>
<path opacity="0.1" d="M87.67 154.82V171.51C87.67 184.24 77.25 194.66 64.52 194.66H76.85C89.58 194.66 100 184.24 100 171.51V154.82H87.67Z" fill="#482C80"/>
<path d="M102.1 151.82H31.8398V158.03H102.1V151.82Z" fill="#91B9B2"/>
<path d="M197.94 198.07C227.106 198.07 250.75 196.055 250.75 193.57C250.75 191.085 227.106 189.07 197.94 189.07C168.774 189.07 145.13 191.085 145.13 193.57C145.13 196.055 168.774 198.07 197.94 198.07Z" fill="#F4F2ED"/>
<path d="M185.06 141.87C185.06 141.87 168.45 130.76 163.44 119.95C158.44 109.14 155.03 94.7102 156.03 93.6202C157.03 92.5302 188.58 119.03 196.03 142.01L185.06 141.87Z" fill="#457158"/>
<path d="M158.16 97.2502C163.48 104.59 168.48 112.07 173.73 119.37C176.32 123.05 178.98 126.66 181.74 130.19C184.52 133.71 187.33 137.2 190.59 140.36C186.74 137.91 183.48 134.65 180.43 131.3C178.86 129.64 177.48 127.85 176.02 126.1C174.64 124.3 173.26 122.49 171.94 120.65C169.32 116.94 166.83 113.16 164.53 109.25C162.22 105.35 160.04 101.38 158.16 97.2502Z" fill="#72A265"/>
<path d="M199.27 141.81C199.27 141.81 190.46 115.58 189.46 99.9501C188.46 84.3201 192.06 64.5001 194.36 63.9001C196.66 63.3001 223.49 111.63 203.07 141.81H199.27Z" fill="#457158"/>
<path d="M195.27 67.52C196.86 73.4 198.15 79.37 199.22 85.37C199.79 88.37 200.22 91.38 200.69 94.39C201.1 97.41 201.49 100.43 201.81 103.47C202.14 106.5 202.35 109.55 202.58 112.59C202.71 115.64 202.9 118.69 202.86 121.75C202.86 127.85 202.54 134.01 201.21 139.97C201.27 138.44 201.34 136.92 201.44 135.41C201.48 133.89 201.44 132.37 201.44 130.86C201.48 129.35 201.36 127.83 201.33 126.32L201.26 124.05L201.12 121.78C200.79 115.74 200.25 109.7 199.6 103.68C199 97.65 198.25 91.63 197.51 85.61L195.26 67.51L195.27 67.52Z" fill="#5C8A5C"/>
<path d="M199.27 141.81C199.27 141.81 194.27 122.95 203.67 108.14C213.07 93.3301 225.42 77.5201 226.76 77.8201C228.1 78.1101 222.69 125.24 203.07 141.81H199.27Z" fill="#72A265"/>
<path d="M225.61 80.7202C223.71 85.7702 221.71 90.7502 219.68 95.7202L213.56 110.61L207.39 125.47C205.34 130.43 203.33 135.4 201.2 140.36C202.45 135.12 204.03 129.95 205.78 124.86C207.54 119.77 209.47 114.74 211.52 109.76C213.61 104.8 215.77 99.8702 218.11 95.0202C220.44 90.1702 222.89 85.3702 225.61 80.7102V80.7202Z" fill="#457158"/>
<path d="M200.97 140.97C200.97 140.97 207.98 121.69 220.59 114.61C233.2 107.53 246.01 101.77 247.81 102.85C249.61 103.93 241.2 127.44 204.77 141.81L200.97 140.97Z" fill="#5C8A5C"/>
<path d="M244.82 105.44C241.42 108.36 238.01 111.23 234.6 114.1C231.2 116.98 227.78 119.81 224.4 122.71L214.23 131.36C210.83 134.24 207.47 137.16 203.97 139.97C206.82 136.51 209.87 133.22 213.07 130.09C216.24 126.93 219.58 123.94 222.98 121.03C226.4 118.15 229.92 115.37 233.55 112.75C237.18 110.13 240.9 107.62 244.82 105.44Z" fill="#72A265"/>
<path d="M207.56 141.31C207.56 141.31 214.91 129.96 227.12 128.16C239.33 126.36 245.94 124.36 246.34 125.36C246.74 126.36 233.33 139.86 221.52 141.82C209.71 143.78 207.56 141.31 207.56 141.31Z" fill="#72A265"/>
<path d="M210.52 141.01C213.01 139.59 215.55 138.35 218.12 137.17C220.68 135.97 223.28 134.88 225.88 133.78C228.5 132.72 231.11 131.67 233.75 130.68C236.39 129.68 239.04 128.73 241.75 127.8C239.47 129.54 236.97 130.94 234.45 132.25C231.93 133.56 229.33 134.71 226.72 135.81C224.09 136.87 221.44 137.88 218.74 138.75C216.05 139.63 213.32 140.43 210.51 141L210.52 141.01Z" fill="#457158"/>
<path d="M194.86 140.77C194.86 140.77 181.45 129.26 177.04 111.2C172.64 93.1301 170.83 76.3201 172.24 76.4201C173.64 76.5201 200.31 107.02 199.99 141.01L194.86 140.77Z" fill="#5C8A5C"/>
<path d="M173.77 80.7202C175.8 85.5802 177.71 90.4602 179.6 95.3602L185.23 110.03C187.09 114.92 188.98 119.8 190.92 124.66C192.87 129.51 194.84 134.36 196.99 139.17C194.04 134.8 191.6 130.1 189.34 125.35C187.06 120.6 185.08 115.72 183.17 110.82C181.3 105.9 179.55 100.94 177.98 95.9302C176.4 90.9202 174.93 85.8702 173.77 80.7302V80.7202Z" fill="#457158"/>
<path d="M191.69 141.31C191.69 141.31 184.34 129.96 172.13 128.16C159.92 126.36 153.31 124.36 152.91 125.36C152.51 126.36 165.92 139.86 177.73 141.82C189.54 143.78 191.69 141.31 191.69 141.31Z" fill="#72A265"/>
<path d="M188.73 141.01C186.24 139.59 183.7 138.35 181.13 137.17C178.57 135.97 175.97 134.88 173.37 133.78C170.75 132.72 168.14 131.67 165.5 130.68C162.86 129.68 160.21 128.73 157.5 127.8C159.78 129.54 162.28 130.94 164.8 132.25C167.32 133.56 169.92 134.71 172.53 135.81C175.16 136.87 177.81 137.88 180.51 138.75C183.2 139.63 185.93 140.43 188.74 141L188.73 141.01Z" fill="#5C8A5C"/>
<path d="M170.09 144.01V176.6C170.09 186.54 178.22 194.67 188.16 194.67H208.08C218.02 194.67 226.15 186.54 226.15 176.6V144.01H170.1H170.09Z" fill="#FFF083"/>
<mask id="mask0_518_358" style="mask-type:luminance" maskUnits="userSpaceOnUse" x="170" y="144" width="57" height="51">
<path d="M170.09 144.01V176.6C170.09 186.54 178.22 194.67 188.16 194.67H208.08C218.02 194.67 226.15 186.54 226.15 176.6V144.01H170.1H170.09Z" fill="white"/>
</mask>
<g mask="url(#mask0_518_358)">
<path d="M229.42 157.58C227.61 159.59 225.81 161.61 224 163.62C222.19 161.61 220.39 159.59 218.58 157.58C218.06 157 216.97 157 216.45 157.58L211.04 163.62C209.24 161.61 207.44 159.59 205.63 157.58C205.11 157 204.02 157 203.5 157.58C201.7 159.59 199.89 161.61 198.09 163.62C196.29 161.61 194.48 159.59 192.68 157.58C192.16 157 191.07 157 190.55 157.58C188.75 159.59 186.94 161.61 185.14 163.62C183.34 161.61 181.53 159.6 179.73 157.58C179.21 157 178.12 157 177.6 157.58C175.8 159.59 174 161.6 172.2 163.62C170.4 161.61 168.6 159.6 166.8 157.58C165.51 156.13 163.38 158.27 164.67 159.71C166.83 162.12 168.98 164.53 171.14 166.94C171.66 167.52 172.75 167.52 173.27 166.94C175.07 164.93 176.87 162.92 178.68 160.9C180.48 162.91 182.28 164.92 184.09 166.94C184.61 167.52 185.7 167.52 186.22 166.94C188.02 164.93 189.83 162.92 191.63 160.9C193.43 162.91 195.24 164.92 197.04 166.94C197.56 167.52 198.65 167.52 199.17 166.94C200.97 164.93 202.78 162.92 204.58 160.9C206.38 162.91 208.18 164.92 209.99 166.94C210.51 167.52 211.6 167.52 212.12 166.94L217.53 160.9C219.34 162.91 221.14 164.93 222.95 166.94C223.47 167.52 224.56 167.52 225.08 166.94L231.56 159.71C232.85 158.27 230.73 156.13 229.43 157.58H229.42Z" fill="white"/>
</g>
<path opacity="0.1" d="M213.33 144.01V176.6C213.33 186.54 205.2 194.67 195.26 194.67H208.07C218.01 194.67 226.14 186.54 226.14 176.6V144.01H213.33Z" fill="#482C80"/>
<path d="M230.48 140.62H165.75V147.4H230.48V140.62Z" fill="#FFF7AE"/>
<path d="M343.72 198.07C372.886 198.07 396.53 196.055 396.53 193.57C396.53 191.085 372.886 189.07 343.72 189.07C314.554 189.07 290.91 191.085 290.91 193.57C290.91 196.055 314.554 198.07 343.72 198.07Z" fill="#F4F2ED"/>
<path d="M371.53 148.92C371.53 148.92 366.67 138.92 371.09 126.04C375.51 113.16 378.25 107.72 377.17 101.73C376.1 95.74 376.2 86.52 380.42 79.03C384.64 71.54 386.85 64.49 385.54 59.26C384.23 54.03 382.75 46.65 384.63 39.9C386.52 33.15 387.93 31.28 385.49 32.41C383.04 33.54 372.02 45.42 370.3 54.31C368.58 63.21 372.62 68.91 368.22 78.55C362.9 90.2 360.59 96.36 361.57 104.01C362.55 111.65 358.58 118.33 356.8 122.11C354.1 127.83 352.48 135.98 354.15 146.14L371.52 148.92H371.53Z" fill="#A7C16A"/>
<path d="M368.09 148.66C368.09 148.66 366.21 133.35 370.16 121.85C374.11 110.34 376.23 105.01 375.27 99.6601C374.31 94.3101 374.38 85.2301 378.15 78.5401C381.92 71.8501 385.25 67.6401 384.66 61.5401C384.19 56.7501 380.74 49.8201 382.43 43.7901C384.12 37.7601 385.32 34.5401 383.14 35.5501C380.96 36.5601 374.35 47.7801 372.82 55.7301C371.29 63.6801 375.02 68.9001 371.09 77.5101C366.34 87.9201 362.39 94.6801 363.27 101.5C364.15 108.32 363.08 115.51 360.54 118.25C356.65 122.43 354.1 133.1 356.02 141.92L368.1 148.66H368.09Z" fill="#72A265"/>
<mask id="mask1_518_358" style="mask-type:luminance" maskUnits="userSpaceOnUse" x="355" y="35" width="30" height="114">
<path d="M368.09 148.66C368.09 148.66 366.21 133.35 370.16 121.85C374.11 110.34 376.23 105.01 375.27 99.6601C374.31 94.3101 374.38 85.2301 378.15 78.5401C381.92 71.8501 385.25 67.6401 384.66 61.5401C384.19 56.7501 380.74 49.8201 382.43 43.7901C384.12 37.7601 385.32 34.5401 383.14 35.5501C380.96 36.5601 374.35 47.7801 372.82 55.7301C371.29 63.6801 375.02 68.9001 371.09 77.5101C366.34 87.9201 362.39 94.6801 363.27 101.5C364.15 108.32 363.08 115.51 360.54 118.25C356.65 122.43 354.1 133.1 356.02 141.92L368.1 148.66H368.09Z" fill="white"/>
</mask>
<g mask="url(#mask1_518_358)">
<path d="M369.49 42.81L370.9 39.82C371.01 39.87 381.54 44.67 391.53 39.26L393.1 42.17C381.61 48.4 369.98 43.05 369.49 42.82V42.81Z" fill="#5C8A5C"/>
<path d="M366.84 52.61L368.06 49.54C368.23 49.61 385.72 56.44 393.34 51.35L395.17 54.1C386.11 60.14 367.62 52.92 366.83 52.61H366.84Z" fill="#5C8A5C"/>
<path d="M365.27 61.52C364.82 61.29 364.55 61.1399 364.47 61.0999L366.06 58.2C366.23 58.3 382.8 67.2899 394.05 63.3899L395.13 66.51C383.87 70.41 368.92 63.38 365.27 61.52Z" fill="#5C8A5C"/>
<path d="M366.6 75.0599C363.71 73.5799 361.76 72.3799 361.51 72.2199L363.26 69.4099C368.5 72.6699 383.69 80.3999 390.99 77.0399L392.37 80.0399C385.1 83.3899 373.32 78.4799 366.6 75.0499V75.0599Z" fill="#5C8A5C"/>
<path d="M363.89 87.2199C359.58 85.0199 356.42 82.8199 356.11 82.5999L358.01 79.8899C362.89 83.3099 377.01 91.3799 383.68 87.6599L385.29 90.5499C379.39 93.8499 370.35 90.5299 363.89 87.2199Z" fill="#5C8A5C"/>
<path d="M358.37 97.32C354.41 95.3 351.67 93.38 351.39 93.18L353.3 90.48C353.47 90.6 369.93 102.09 380.29 98.13L381.47 101.22C374.09 104.04 364.69 100.55 358.38 97.32H358.37Z" fill="#5C8A5C"/>
<path d="M350.53 106.12C349.34 105.51 348.6 105.09 348.44 105.01L350.07 102.13C350.27 102.24 370.58 113.63 380.39 108.93L381.82 111.91C372.4 116.43 356.28 109.07 350.52 106.12H350.53Z" fill="#5C8A5C"/>
<path d="M348.72 116.57C346.58 115.48 345.2 114.65 344.99 114.53L346.69 111.69C346.88 111.8 365.26 122.7 375.25 119.27L376.32 122.4C367.79 125.33 355 119.78 348.72 116.57Z" fill="#5C8A5C"/>
<path d="M342.9 126.18L344.36 123.21C350.59 126.27 368.24 133.37 375.02 129.52L376.65 132.4C366.97 137.9 343.87 126.66 342.9 126.18Z" fill="#5C8A5C"/>
<path d="M348.19 140.9C343.26 138.38 339.78 135.87 339.44 135.63L341.38 132.96C341.57 133.1 360.36 146.59 372.31 142.11L373.47 145.21C365.43 148.23 355.3 144.55 348.19 140.91V140.9Z" fill="#5C8A5C"/>
<path d="M339.98 149.72C337.64 148.52 335.96 147.57 335.38 147.23L337.04 144.37C345.47 149.26 360.75 155.94 365.86 153.05L367.49 155.93C361.11 159.55 347.32 153.48 339.98 149.73V149.72Z" fill="#5C8A5C"/>
</g>
<path d="M328.06 168.32C328.06 168.32 315.84 157.53 313.14 145.81C310.44 134.09 306.75 126.21 302.66 120.6C298.57 114.99 293.71 108.25 292.55 98.18C291.61 89.98 288.34 84.81 285.21 81.12C282.08 77.43 277.11 73.85 275.62 63.45C274.13 53.05 273.89 45.63 274.96 45.74C276.03 45.85 282.75 58.51 291.26 65.04C299.77 71.57 302.19 74.22 304.37 84.83C306.55 95.45 309.33 106.52 317.22 115.73C325.11 124.93 328.95 132.59 330.56 140.45C332.17 148.32 339.6 160.57 344.14 163.75L328.06 168.31V168.32Z" fill="#A7C16A"/>
<path d="M327.49 167.96C327.49 167.96 318.02 156.3 314.71 144C311.89 133.51 307.03 123.41 303.49 118.3C299.95 113.19 295.75 107.05 294.6 97.98C293.66 90.6 290.82 85.9 288.13 82.53C285.44 79.16 279.54 74.03 278.09 64.67C276.64 55.31 275.26 48.94 276.16 49.06C277.06 49.18 284.57 61.97 292.92 68.2C300.48 73.85 301.2 76.94 303.22 86.51C305.24 96.08 307.77 106.08 314.57 114.48C321.36 122.89 325.34 129.63 327.28 136.62C331.29 151.06 336.74 160.15 340.61 163.09L327.48 167.96H327.49Z" fill="#457158"/>
<mask id="mask2_518_358" style="mask-type:luminance" maskUnits="userSpaceOnUse" x="275" y="49" width="66" height="119">
<path d="M327.49 167.96C327.49 167.96 318.02 156.3 314.71 144C311.89 133.51 307.03 123.41 303.49 118.3C299.95 113.19 295.75 107.05 294.6 97.98C293.66 90.6 290.82 85.9 288.13 82.53C285.44 79.16 279.54 74.03 278.09 64.67C276.64 55.31 275.26 48.94 276.16 49.06C277.06 49.18 284.57 61.97 292.92 68.2C300.48 73.85 301.2 76.94 303.22 86.51C305.24 96.08 307.77 106.08 314.57 114.48C321.36 122.89 325.34 129.63 327.28 136.62C331.29 151.06 336.74 160.15 340.61 163.09L327.48 167.96H327.49Z" fill="white"/>
</mask>
<g mask="url(#mask2_518_358)">
<path d="M269.48 66.4801L268.47 63.3301C268.58 63.2901 279.56 59.6401 283.19 48.8701L286.32 49.9301C282.15 62.3101 269.99 66.3201 269.47 66.4801H269.48Z" fill="#284C36"/>
<path d="M274.22 75.4602L273.02 72.3802C273.2 72.3102 290.65 65.4002 292.77 56.4902L295.99 57.2602C293.47 67.8602 275.01 75.1602 274.22 75.4702V75.4602Z" fill="#284C36"/>
<path d="M279.13 83.0601C278.65 83.2001 278.34 83.2801 278.25 83.3001L277.44 80.0901C277.63 80.0501 295.89 75.3401 301.47 64.8301L304.39 66.3801C298.8 76.9001 283.07 81.9401 279.12 83.0601H279.13Z" fill="#284C36"/>
<path d="M289.33 92.0702C286.21 92.9602 283.96 93.4002 283.67 93.4602L283.04 90.2102C289.1 89.0302 305.49 84.3402 308.54 76.9102L311.6 78.1702C308.56 85.5802 296.59 90.0102 289.33 92.0702Z" fill="#284C36"/>
<path d="M295.63 102.82C290.97 104.14 287.17 104.68 286.78 104.74L286.33 101.46C292.23 100.64 308.07 96.9302 310.41 89.6702L313.56 90.6802C311.49 97.1102 302.61 100.84 295.63 102.82Z" fill="#284C36"/>
<path d="M298.47 113.96C294.2 115.17 290.88 115.64 290.53 115.68L290.09 112.4C290.29 112.37 310.18 109.58 315.06 99.6201L318.03 101.08C314.55 108.17 305.29 112.02 298.47 113.95V113.96Z" fill="#284C36"/>
<path d="M298.72 125.75C297.44 126.11 296.6 126.32 296.43 126.36L295.67 123.14C295.9 123.09 318.52 117.6 322.5 107.46L325.58 108.67C321.76 118.4 304.94 123.98 298.72 125.75Z" fill="#284C36"/>
<path d="M304.51 134.64C302.2 135.3 300.63 135.64 300.39 135.69L299.7 132.46C299.91 132.41 320.8 127.88 325.77 118.56L328.69 120.12C324.44 128.08 311.29 132.72 304.51 134.65V134.64Z" fill="#284C36"/>
<path d="M306.79 145.63L305.84 142.46C312.49 140.46 330.25 133.64 332.59 126.2L335.74 127.19C332.4 137.81 307.83 145.31 306.79 145.62V145.63Z" fill="#284C36"/>
<path d="M320.69 152.81C315.36 154.32 311.11 154.86 310.69 154.91L310.29 151.63C310.52 151.6 333.47 148.68 339.17 137.26L342.13 138.74C338.3 146.42 328.38 150.63 320.69 152.81Z" fill="#284C36"/>
<path d="M320.69 164.86C318.16 165.58 316.28 166.02 315.63 166.17L314.9 162.95C324.41 160.79 340.15 155.27 341.91 149.68L345.06 150.67C342.85 157.67 328.62 162.61 320.69 164.86Z" fill="#284C36"/>
</g>
<path d="M356.81 155.75C356.81 155.75 353.3 140.92 362.61 128.56C371.92 116.2 375.2 107.03 376.99 102.08C380.15 93.3302 380.96 81.2702 386.37 70.1202C390.59 61.4302 403.67 53.2002 404.85 55.1502C406.03 57.1002 396.26 64.6202 396.56 77.7602C396.8 88.2502 400.32 99.8702 392.69 108.25C385.06 116.63 372.41 132.98 373.92 157.75L356.8 155.75H356.81Z" fill="#A7C16A"/>
<path d="M358.6 154.84C358.6 154.84 357.53 139.84 366.06 128.5C374.59 117.16 377.4 107.39 379.04 102.85C381.94 94.83 382.23 83.45 387.19 73.22C391.06 65.25 400.98 56.24 402.06 58.03C403.14 59.82 394.52 64.86 395.19 80.03C395.62 89.64 397.28 99.82 390.28 107.5C383.28 115.18 370.71 135.22 367.69 155.89L358.59 154.83L358.6 154.84Z" fill="#457158"/>
<mask id="mask3_518_358" style="mask-type:luminance" maskUnits="userSpaceOnUse" x="358" y="57" width="45" height="99">
<path d="M358.6 154.84C358.6 154.84 357.53 139.84 366.06 128.5C374.59 117.16 377.4 107.39 379.04 102.85C381.94 94.83 382.23 83.45 387.19 73.22C391.06 65.25 400.98 56.24 402.06 58.03C403.14 59.82 394.52 64.86 395.19 80.03C395.62 89.64 397.28 99.82 390.28 107.5C383.28 115.18 370.71 135.22 367.69 155.89L358.59 154.83L358.6 154.84Z" fill="white"/>
</mask>
<g mask="url(#mask3_518_358)">
<path d="M386.72 55.75L388.6 53.03C388.7 53.1 398.3 59.56 409.04 55.86L410.12 58.99C397.77 63.25 387.17 56.07 386.72 55.76V55.75Z" fill="#284C36"/>
<path d="M382.51 64.9801L384.22 62.1501C384.38 62.2501 400.51 71.8501 408.86 68.0801L410.22 71.1001C400.29 75.5701 383.23 65.4201 382.51 64.9801Z" fill="#284C36"/>
<path d="M379.49 73.5101C379.09 73.2101 378.84 73.0201 378.77 72.9601L380.82 70.3601C380.97 70.4801 395.85 82.0701 407.58 80.0701L408.13 83.3301C396.38 85.3301 382.78 75.9501 379.49 73.5101Z" fill="#284C36"/>
<path d="M378.59 87.1C375.98 85.17 374.26 83.66 374.03 83.47L376.22 80.99C380.85 85.07 394.58 95.19 402.32 93.06L403.19 96.25C395.47 98.37 384.65 91.59 378.59 87.1Z" fill="#284C36"/>
<path d="M373.91 98.64C370.02 95.76 367.26 93.08 366.99 92.81L369.31 90.45C373.56 94.63 386.17 104.9 393.35 102.32L394.47 105.43C388.11 107.71 379.74 102.96 373.91 98.64Z" fill="#284C36"/>
<path d="M366.82 107.7C363.25 105.06 360.86 102.71 360.61 102.47L362.94 100.12C363.08 100.26 377.44 114.3 388.31 112.09L388.97 115.33C381.23 116.9 372.53 111.92 366.83 107.7H366.82Z" fill="#284C36"/>
<path d="M357.64 115.1C356.57 114.3 355.9 113.77 355.76 113.66L357.84 111.09C358.02 111.24 376.18 125.8 386.64 122.76L387.56 125.94C377.52 128.85 362.83 118.95 357.64 115.1Z" fill="#284C36"/>
<path d="M354.14 125.11C352.21 123.68 350.98 122.64 350.8 122.49L352.94 119.97C353.11 120.11 369.45 133.88 379.87 132.13L380.42 135.39C371.52 136.89 359.81 129.31 354.15 125.11H354.14Z" fill="#284C36"/>
<path d="M346.83 133.63L348.76 130.94C354.4 134.98 370.65 144.88 377.97 142.19L379.11 145.29C368.66 149.13 347.72 134.26 346.83 133.62V133.63Z" fill="#284C36"/>
<path d="M349.63 149.02C345.18 145.72 342.15 142.68 341.86 142.38L344.22 140.06C344.38 140.23 360.71 156.62 373.23 154.16L373.87 157.4C365.44 159.06 356.06 153.77 349.64 149.02H349.63Z" fill="#284C36"/>
<path d="M340.08 156.38C337.97 154.82 336.47 153.6 335.95 153.17L338.06 150.62C345.57 156.83 359.56 165.92 365.07 163.91L366.21 167.01C359.32 169.53 346.71 161.29 340.09 156.38H340.08Z" fill="#284C36"/>
</g>
<path d="M340.73 154.76C340.73 154.76 331.92 141.05 332.52 129.04C333.12 117.03 331.72 108.44 329.32 101.93C326.92 95.4101 324.08 87.6001 325.72 77.6001C327.05 69.4501 325.32 63.5901 323.32 59.1801C321.32 54.7801 317.51 49.9701 318.92 39.5601C320.32 29.1501 322.12 21.9401 323.12 22.3401C324.12 22.7401 327.12 36.7501 333.53 45.3601C339.94 53.9701 341.54 57.1701 340.74 67.9801C339.94 78.7901 339.59 90.2001 344.67 101.21C349.75 112.22 351.35 120.63 350.75 128.63C350.15 136.64 353.96 150.45 357.46 154.75H340.74L340.73 154.76Z" fill="#A7C16A"/>
<path d="M340.29 154.26C340.29 154.26 334.36 140.45 334.54 127.72C334.69 116.86 332.77 105.81 330.76 99.9302C328.75 94.0502 326.38 86.9902 327.75 77.9602C328.86 70.6002 327.42 65.3102 325.74 61.3302C324.06 57.3502 319.79 50.8102 320.96 41.4102C322.13 32.0102 322.53 25.5002 323.37 25.8602C324.21 26.2202 327.94 40.5702 334.27 48.8502C340 56.3502 339.85 59.5202 339.18 69.2802C338.51 79.0402 338.22 89.3402 342.46 99.2902C346.7 109.23 348.68 116.81 348.64 124.05C348.56 139.03 351.32 149.27 354.24 153.15L340.28 154.25L340.29 154.26Z" fill="#457158"/>
<mask id="mask4_518_358" style="mask-type:luminance" maskUnits="userSpaceOnUse" x="320" y="25" width="35" height="130">
<path d="M340.29 154.26C340.29 154.26 334.36 140.45 334.54 127.72C334.69 116.86 332.77 105.81 330.76 99.9302C328.75 94.0502 326.38 86.9902 327.75 77.9602C328.86 70.6002 327.42 65.3102 325.74 61.3302C324.06 57.3502 319.79 50.8102 320.96 41.4102C322.13 32.0102 322.53 25.5002 323.37 25.8602C324.21 26.2202 327.94 40.5702 334.27 48.8502C340 56.3502 339.85 59.5202 339.18 69.2802C338.51 79.0402 338.22 89.3402 342.46 99.2902C346.7 109.23 348.68 116.81 348.64 124.05C348.56 139.03 351.32 149.27 354.24 153.15L340.28 154.25L340.29 154.26Z" fill="white"/>
</mask>
<g mask="url(#mask4_518_358)">
<path d="M312.18 40.8001L312.07 37.5001C312.19 37.5001 323.75 36.9701 330.18 27.6101L332.91 29.4801C325.52 40.2601 312.72 40.7901 312.18 40.8101V40.8001Z" fill="#284C36"/>
<path d="M314.29 50.73L313.98 47.44C314.17 47.42 332.84 45.54 337.32 37.54L340.21 39.15C334.89 48.65 315.14 50.64 314.3 50.72L314.29 50.73Z" fill="#284C36"/>
<path d="M316.94 59.3802C316.44 59.3802 316.12 59.3802 316.03 59.3702L316.13 56.0602C316.32 56.0602 335.17 56.5302 343.41 47.9402L345.8 50.2302C337.55 58.8302 321.04 59.3802 316.94 59.3802Z" fill="#284C36"/>
<path d="M324.3 70.83C321.05 70.83 318.77 70.65 318.48 70.62L318.76 67.33C324.91 67.85 341.96 67.81 346.92 61.5L349.52 63.54C344.57 69.84 331.85 70.83 324.3 70.83Z" fill="#284C36"/>
<path d="M327.41 82.89C322.57 82.89 318.76 82.37 318.38 82.32L318.84 79.05C324.74 79.87 340.99 80.63 345.23 74.28L347.98 76.12C344.23 81.74 334.67 82.9 327.42 82.9L327.41 82.89Z" fill="#284C36"/>
<path d="M327.1 94.3901C322.66 94.3901 319.34 93.9301 319 93.8801L319.47 90.6101C319.67 90.6401 339.57 93.3801 346.98 85.1401L349.44 87.3501C344.15 93.2201 334.2 94.3901 327.1 94.3901Z" fill="#284C36"/>
<path d="M324.13 105.8C322.79 105.8 321.94 105.77 321.76 105.76L321.9 102.46C322.13 102.46 345.39 103.36 351.99 94.7002L354.62 96.7002C348.29 105.01 330.58 105.8 324.12 105.8H324.13Z" fill="#284C36"/>
<path d="M327.27 115.93C324.87 115.93 323.26 115.83 323.02 115.81L323.24 112.51C323.46 112.52 344.79 113.86 352.12 106.26L354.5 108.55C348.24 115.05 334.32 115.93 327.27 115.93Z" fill="#284C36"/>
<path d="M326.47 127.13L326.42 123.82C333.36 123.71 352.31 121.99 356.59 115.48L359.35 117.3C353.23 126.6 327.56 127.11 326.47 127.13Z" fill="#284C36"/>
<path d="M337.88 137.83C332.34 137.83 328.1 137.19 327.69 137.12L328.2 133.85C328.43 133.89 351.31 137.34 359.9 127.91L362.34 130.14C356.55 136.49 345.87 137.82 337.88 137.82V137.83Z" fill="#284C36"/>
<path d="M334.58 149.42C331.95 149.42 330.02 149.33 329.35 149.3L329.52 146C339.25 146.52 355.9 145.51 359.13 140.6L361.89 142.42C357.85 148.55 342.81 149.42 334.57 149.42H334.58Z" fill="#284C36"/>
</g>
<path d="M348.11 154.76C348.11 154.76 350.71 134.94 350.91 125.98C351.11 117.02 349.11 104.61 348.11 95.6001C347.11 86.5901 345.12 78.9901 349.52 66.5701C353.92 54.1601 358.92 43.9501 359.72 44.5501C360.52 45.1501 356.52 62.1701 361.32 74.3801C366.12 86.5901 367.53 92.4001 364.52 103.81C361.52 115.22 358.11 136.24 364.52 154.76H348.11Z" fill="#A7C16A"/>
<path d="M349.67 153.65C349.67 153.65 353.69 131.43 353.05 121.05C352.6 113.78 350.48 103.68 349.67 96.3601C348.86 89.0401 346.46 81.4601 350.03 71.3801C353.6 61.2901 357.34 50.7701 357.99 51.2601C358.64 51.7501 355.62 66.4401 359.52 76.3601C363.43 86.2901 365.4 93.7401 363.01 103.03C359.19 117.92 357.8 138.6 363.01 153.65H349.67Z" fill="#5C8A5C"/>
<mask id="mask5_518_358" style="mask-type:luminance" maskUnits="userSpaceOnUse" x="348" y="51" width="17" height="103">
<path d="M349.67 153.65C349.67 153.65 353.69 131.43 353.05 121.05C352.6 113.78 350.48 103.68 349.67 96.3601C348.86 89.0401 346.46 81.4601 350.03 71.3801C353.6 61.2901 357.34 50.7701 357.99 51.2601C358.64 51.7501 355.62 66.4401 359.52 76.3601C363.43 86.2901 365.4 93.7401 363.01 103.03C359.19 117.92 357.8 138.6 363.01 153.65H349.67Z" fill="white"/>
</mask>
<g mask="url(#mask5_518_358)">
<path d="M359.77 62.8002C350.23 62.8002 343.64 56.3602 343.31 56.0302L345.65 53.6902C346 54.0402 354.43 62.2202 365.59 58.5502L366.63 61.6902C364.22 62.4802 361.93 62.8102 359.78 62.8102L359.77 62.8002Z" fill="#477942"/>
<path d="M357.21 72.8501C349.79 72.8501 342.31 70.4001 341.85 70.2501L342.89 67.1101C343.04 67.1601 358.05 72.0701 365.26 67.8501L366.93 70.7001C364.2 72.3001 360.71 72.8401 357.2 72.8401L357.21 72.8501Z" fill="#477942"/>
<path d="M354.51 83.5701C347.97 83.5701 342.34 82.0901 341.95 81.9801L342.81 78.7901C342.96 78.8301 357.86 82.7401 366.29 77.6201L368.01 80.4501C364.05 82.8501 359.06 83.5701 354.51 83.5701Z" fill="#477942"/>
<path d="M351.649 92.2901C346.489 92.2901 342.489 91.7401 342.149 91.6901L342.609 88.4201C342.769 88.4401 358.789 90.6301 367.789 86.1201L369.269 89.0801C364.119 91.6601 357.209 92.3001 351.639 92.3001L351.649 92.2901Z" fill="#477942"/>
<path d="M352.639 101.91C348.049 101.91 344.509 101.33 344.209 101.28L344.759 98.0201C344.909 98.0501 359.869 100.49 367.589 95.1001L369.479 97.8101C364.729 101.13 357.979 101.92 352.639 101.92V101.91Z" fill="#477942"/>
<path d="M354.52 112.76C349.88 112.76 346.26 112.08 345.97 112.02L346.6 108.77C346.73 108.8 360.08 111.29 367.65 106.46L369.43 109.25C365.04 112.05 359.26 112.76 354.53 112.76H354.52Z" fill="#477942"/>
<path d="M355.16 123.35C351.42 123.35 348.29 122.95 347.59 122.85L348.04 119.57C351.99 120.11 363.03 120.79 366.62 117.43L368.88 119.85C365.85 122.68 359.99 123.35 355.16 123.35Z" fill="#477942"/>
<path d="M352.06 133.85C349.01 133.85 346.78 133.55 346.56 133.52L347.01 130.24C347.12 130.25 358.44 131.75 364.44 127.79L366.26 130.55C362.15 133.26 356.32 133.84 352.06 133.84V133.85Z" fill="#477942"/>
<path d="M356.24 144.59C350.5 144.59 346.06 143.17 345.76 143.07L346.79 139.93C346.89 139.96 357.29 143.26 366.18 139.37L367.51 142.4C363.7 144.07 359.73 144.59 356.24 144.59Z" fill="#477942"/>
<path d="M359.36 153.72C352.53 153.72 345.7 151.96 345.26 151.85L346.1 148.65C350.28 149.74 362.31 151.9 367.71 148.81L369.35 151.68C366.67 153.21 363.01 153.71 359.36 153.71V153.72Z" fill="#477942"/>
</g>
<path d="M343.72 152.35C343.72 152.35 334.84 145.66 332.91 132.18C330.98 118.7 330.94 112.61 327.25 107.76C323.57 102.91 319.46 94.6601 319.8 86.0701C320.14 77.4801 318.91 70.2001 315.36 66.1401C311.81 62.0801 307.13 56.1901 305.74 49.3201C304.35 42.4501 304.76 40.1401 303.09 42.2601C301.43 44.3801 297.02 59.9701 299.54 68.6801C302.06 77.3901 308.26 80.6201 308.73 91.2101C309.3 104.01 310.05 110.54 314.4 116.9C318.75 123.26 318.26 131.01 318.4 135.19C318.61 141.51 320.87 149.51 326.98 157.79L343.71 152.35H343.72Z" fill="#A7C16A"/>
<path d="M340.53 153.68C340.53 153.68 331.89 140.91 330.16 128.87C328.44 116.83 327.9 111.11 324.61 106.78C321.32 102.45 317.25 94.3402 317.55 86.6602C317.85 78.9902 318.91 73.7202 315.61 68.5602C313.01 64.5102 306.79 59.9102 305.54 53.7802C304.29 47.6402 303.9 44.2302 302.42 46.1202C300.94 48.0102 300.16 61.0202 302.42 68.7902C304.68 76.5702 310.38 79.5202 310.8 88.9702C311.31 100.4 310.87 108.22 314.76 113.89C318.65 119.57 320.98 126.45 319.96 130.04C318.4 135.53 320.99 146.2 326.72 153.17L340.54 153.67L340.53 153.68Z" fill="#72A265"/>
<mask id="mask6_518_358" style="mask-type:luminance" maskUnits="userSpaceOnUse" x="301" y="45" width="40" height="109">
<path d="M340.53 153.68C340.53 153.68 331.89 140.91 330.16 128.87C328.44 116.83 327.9 111.11 324.61 106.78C321.32 102.45 317.25 94.3402 317.55 86.6602C317.85 78.9902 318.91 73.7202 315.61 68.5602C313.01 64.5102 306.79 59.9102 305.54 53.7802C304.29 47.6402 303.9 44.2302 302.42 46.1202C300.94 48.0102 300.16 61.0202 302.42 68.7902C304.68 76.5702 310.38 79.5202 310.8 88.9702C311.31 100.4 310.87 108.22 314.76 113.89C318.65 119.57 320.98 126.45 319.96 130.04C318.4 135.53 320.99 146.2 326.72 153.17L340.54 153.67L340.53 153.68Z" fill="white"/>
</mask>
<g mask="url(#mask6_518_358)">
<path d="M293.59 58.8001L293.48 55.5001C293.6 55.5001 305.16 54.9701 311.59 45.6101L314.32 47.4801C306.93 58.2601 294.13 58.7901 293.59 58.8101V58.8001Z" fill="#5C8A5C"/>
<path d="M295.69 68.73L295.38 65.44C295.57 65.42 314.24 63.54 318.72 55.54L321.61 57.15C316.29 66.65 296.54 68.64 295.7 68.72L295.69 68.73Z" fill="#5C8A5C"/>
<path d="M298.34 77.3802C297.84 77.3802 297.52 77.3802 297.43 77.3702L297.53 74.0602C297.72 74.0602 316.57 74.5302 324.81 65.9402L327.2 68.2302C318.95 76.8302 302.44 77.3802 298.34 77.3802Z" fill="#5C8A5C"/>
<path d="M305.7 88.84C302.45 88.84 300.17 88.66 299.88 88.63L300.16 85.34C306.31 85.86 323.36 85.82 328.32 79.51L330.92 81.55C325.97 87.85 313.25 88.84 305.7 88.84Z" fill="#5C8A5C"/>
<path d="M308.82 100.9C303.98 100.9 300.17 100.38 299.79 100.33L300.25 97.06C306.15 97.88 322.4 98.64 326.64 92.29L329.39 94.13C325.64 99.75 316.08 100.91 308.83 100.91L308.82 100.9Z" fill="#5C8A5C"/>
<path d="M308.51 112.39C304.07 112.39 300.75 111.93 300.41 111.88L300.88 108.61C301.08 108.64 320.98 111.38 328.39 103.14L330.85 105.35C325.56 111.22 315.61 112.39 308.51 112.39Z" fill="#5C8A5C"/>
<path d="M305.53 123.8C304.19 123.8 303.34 123.77 303.16 123.76L303.3 120.46C303.53 120.46 326.79 121.36 333.39 112.7L336.02 114.7C329.69 123.01 311.98 123.8 305.52 123.8H305.53Z" fill="#5C8A5C"/>
<path d="M308.68 133.94C306.28 133.94 304.67 133.84 304.43 133.82L304.65 130.52C304.87 130.53 326.2 131.87 333.53 124.27L335.91 126.56C329.65 133.06 315.73 133.94 308.68 133.94Z" fill="#5C8A5C"/>
<path d="M307.87 145.13L307.82 141.82C314.76 141.71 333.71 139.99 337.99 133.48L340.75 135.3C334.63 144.6 308.96 145.11 307.87 145.13Z" fill="#5C8A5C"/>
<path d="M319.28 155.83C313.74 155.83 309.5 155.19 309.09 155.12L309.6 151.85C309.83 151.89 332.71 155.34 341.3 145.91L343.74 148.14C337.95 154.49 327.27 155.82 319.28 155.82V155.83Z" fill="#5C8A5C"/>
</g>
<path d="M323.06 161.92C323.06 161.92 312.71 137.45 298.16 125.22C288.28 116.91 282.77 117.08 282.99 118.4C283.21 119.72 305.22 144.44 310.4 165.54L323.06 161.93V161.92Z" fill="#A7C16A"/>
<path d="M320.15 162.25C320.15 162.25 311.99 138.83 299.39 127.78C290.83 120.27 286.05 119.29 286.25 120.47C286.45 121.65 306.81 144.81 311.4 163.76L320.15 162.25Z" fill="#5C8A5C"/>
<mask id="mask7_518_358" style="mask-type:luminance" maskUnits="userSpaceOnUse" x="286" y="120" width="35" height="44">
<path d="M320.15 162.25C320.15 162.25 311.99 138.83 299.39 127.78C290.83 120.27 286.05 119.29 286.25 120.47C286.45 121.65 306.81 144.81 311.4 163.76L320.15 162.25Z" fill="white"/>
</mask>
<g mask="url(#mask7_518_358)">
<path d="M284.7 125.96L284.13 123.19C284.23 123.17 293.9 121.05 297.96 112.22L300.53 113.4C295.86 123.55 285.16 125.86 284.71 125.95L284.7 125.96Z" fill="#477942"/>
<path d="M287.92 134.02L287.18 131.29C287.34 131.25 302.8 126.95 305.41 119.56L308.08 120.5C304.98 129.28 288.62 133.82 287.92 134.01V134.02Z" fill="#477942"/>
<path d="M291.41 140.93C290.99 141 290.72 141.04 290.64 141.05L290.24 138.25C290.4 138.23 306.36 135.88 312.06 127.44L314.4 129.02C308.7 137.46 294.86 140.33 291.4 140.92L291.41 140.93Z" fill="#477942"/>
<path d="M299.27 149.51C296.53 149.98 294.58 150.16 294.33 150.18L294.09 147.36C299.35 146.91 313.71 144.4 316.98 138.36L319.47 139.7C316.21 145.72 305.63 148.41 299.28 149.5L299.27 149.51Z" fill="#477942"/>
<path d="M303.65 159.23C299.57 159.93 296.28 160.05 295.95 160.06L295.86 157.23C300.96 157.07 314.76 155.34 317.41 149.38L319.99 150.53C317.64 155.81 309.76 158.18 303.64 159.23H303.65Z" fill="#477942"/>
<path d="M305.05 168.96C301.31 169.6 298.44 169.7 298.15 169.71L298.07 166.88C298.24 166.88 315.41 166.3 320.46 158.27L322.85 159.78C319.25 165.5 311.02 167.93 305.05 168.96Z" fill="#477942"/>
</g>
<path d="M367.47 156.1C367.47 156.1 371.64 140.24 378.01 133.36C384.38 126.48 391.33 121.1 392.95 117.31C394.57 113.52 394.67 131.88 390.78 138.4C386.89 144.92 372.43 156.9 372.43 156.9L367.47 156.1Z" fill="#A7C16A"/>
<path d="M369.03 153.15C369.03 153.15 373.1 140.42 378.58 135.09C384.06 129.76 389.94 125.68 391.43 122.66C392.92 119.64 392.21 134.59 388.77 139.74C385.33 144.89 373.04 154.01 373.04 154.01L369.03 153.15Z" fill="#72A265"/>
<mask id="mask8_518_358" style="mask-type:luminance" maskUnits="userSpaceOnUse" x="369" y="122" width="24" height="33">
<path d="M369.03 153.15C369.03 153.15 373.1 140.42 378.58 135.09C384.06 129.76 389.94 125.68 391.43 122.66C392.92 119.64 392.21 134.59 388.77 139.74C385.33 144.89 373.04 154.01 373.04 154.01L369.03 153.15Z" fill="white"/>
</mask>
<g mask="url(#mask8_518_358)">
<path d="M391 129.66C383.2 124.16 381.53 115.11 381.45 114.64L384.71 114.07L383.08 114.35L384.71 114.06C384.8 114.55 386.97 126.09 398.21 129.52L397.25 132.68C394.82 131.94 392.76 130.89 391.01 129.65L391 129.66Z" fill="#5C8A5C"/>
<path d="M383.12 136.4C377.06 132.13 372.35 125.81 372.06 125.43L374.72 123.47C374.81 123.6 384.26 136.26 392.58 136.96L392.3 140.25C389.15 139.98 385.98 138.42 383.11 136.4H383.12Z" fill="#5C8A5C"/>
<path d="M374.73 143.6C369.39 139.84 365.64 135.38 365.38 135.07L367.92 132.95C368.02 133.07 377.95 144.85 387.79 145.52L387.56 148.82C382.94 148.5 378.44 146.22 374.72 143.6H374.73Z" fill="#5C8A5C"/>
<path d="M367.37 149.08C363.15 146.11 360.19 143.35 359.95 143.12L362.21 140.71C362.33 140.82 374.16 151.84 384.12 153.33L383.63 156.6C377.94 155.75 371.92 152.28 367.37 149.08Z" fill="#5C8A5C"/>
<path d="M362.64 157.52C358.89 154.88 356.33 152.36 356.11 152.14L358.44 149.79C358.55 149.9 369.37 160.51 378.78 160.55V163.86C372.97 163.84 367 160.59 362.64 157.52Z" fill="#5C8A5C"/>
</g>
<path d="M301.52 153.51V160.49C301.52 179.28 316.9 194.66 335.69 194.66H349.66C368.45 194.66 383.83 179.28 383.83 160.49V153.51H301.53H301.52Z" fill="#F7D4CC"/>
<mask id="mask9_518_358" style="mask-type:luminance" maskUnits="userSpaceOnUse" x="301" y="153" width="83" height="42">
<path d="M301.52 153.51V160.49C301.52 179.28 316.9 194.66 335.69 194.66H349.66C368.45 194.66 383.83 179.28 383.83 160.49V153.51H301.53H301.52Z" fill="white"/>
</mask>
<g mask="url(#mask9_518_358)">
<path d="M391.87 162.2H293.98V163.3H391.87V162.2Z" fill="white"/>
<path d="M391.87 170.47H293.98V172.67H391.87V170.47Z" fill="white"/>
<path d="M391.87 180.94H293.98V184.25H391.87V180.94Z" fill="white"/>
</g>
<path opacity="0.1" d="M368.81 153.51V160.49C368.81 179.11 353.72 194.36 335.17 194.64C335.35 194.64 335.52 194.65 335.69 194.65H349.66C368.45 194.65 383.83 179.27 383.83 160.48V153.5H368.82L368.81 153.51Z" fill="#482C80"/>
<path d="M387.09 150.12H298.25V156.9H387.09V150.12Z" fill="#D39A87"/>
<path d="M490.84 198.07C520.006 198.07 543.65 196.055 543.65 193.57C543.65 191.085 520.006 189.07 490.84 189.07C461.674 189.07 438.03 191.085 438.03 193.57C438.03 196.055 461.674 198.07 490.84 198.07Z" fill="#F4F2ED"/>
<path d="M492.81 71.58C492.81 71.58 483.02 18.9 521.54 0C521.54 0 523.23 53.34 492.81 71.58Z" fill="#5C8A5C"/>
<path d="M518.729 6.35997C518.369 6.71997 518.049 7.08997 517.729 7.46997C516.749 8.61997 515.859 9.79997 515.019 10.99C513.609 12.98 512.329 15 511.139 17.04C509.429 19.96 507.909 22.92 506.509 25.9C504.669 29.84 503.049 33.81 501.599 37.8C499.769 42.85 498.209 47.93 496.859 53.03C495.229 59.19 493.899 65.39 492.809 71.59C491.509 79.02 490.549 86.47 489.859 93.93C489.049 102.72 488.619 111.53 488.489 120.33C488.339 130.48 488.599 140.64 489.189 150.79C489.349 153.49 489.529 156.19 489.729 158.89C489.759 159.27 490.799 159.27 490.769 158.89C489.989 148.39 489.539 137.89 489.499 127.38C489.469 118.32 489.739 109.25 490.389 100.2C490.949 92.42 491.789 84.64 492.979 76.88C493.979 70.35 495.239 63.83 496.809 57.33C498.109 51.98 499.619 46.64 501.409 41.34C502.839 37.11 504.449 32.9 506.289 28.72C507.709 25.5 509.279 22.29 511.029 19.13C512.279 16.87 513.629 14.64 515.129 12.43C516.059 11.06 517.039 9.70997 518.119 8.37997C518.569 7.82997 519.189 7.28997 519.559 6.72997C519.569 6.70997 519.599 6.68997 519.619 6.66997C519.949 6.33997 519.059 6.03997 518.719 6.36997L518.729 6.35997Z" fill="#457158"/>
<path d="M493.229 48.1501C494.469 52.5101 494.919 57.2301 494.639 61.7401C494.589 62.5401 495.579 62.5901 495.629 61.7901C495.919 57.1801 495.709 52.2801 494.439 47.8201C494.219 47.0501 493.009 47.3801 493.229 48.1501Z" fill="#457158"/>
<path d="M508.769 42.4001C505.159 44.5201 501.749 47.4001 499.129 50.6601C498.009 52.0501 497.019 53.5301 496.289 55.1601C495.959 55.8901 496.769 56.5001 497.099 55.7701C499.289 50.9101 503.889 47.1201 508.249 44.2101C508.629 43.9601 509.009 43.7101 509.399 43.4801C510.089 43.0701 509.459 41.9901 508.769 42.4001Z" fill="#457158"/>
<path d="M498.199 27.6502C498.539 28.8802 498.669 30.1902 498.799 31.4602C499.259 35.8102 499.289 40.2102 499.199 44.5802C499.179 45.3802 500.219 45.4102 500.229 44.6002C500.319 40.1802 500.499 35.7102 500.029 31.3102C499.889 29.9802 499.759 28.6102 499.399 27.3202C499.189 26.5402 497.979 26.8702 498.189 27.6502H498.199Z" fill="#457158"/>
<path d="M515.519 23.81C511.679 25.54 508.039 28.32 505.289 31.49C504.019 32.95 502.919 34.55 502.079 36.29C501.729 37.01 502.619 37.66 502.969 36.93C505.379 31.91 510.109 28.09 514.949 25.49C515.349 25.28 515.739 25.07 516.149 24.88C516.879 24.55 516.249 23.47 515.519 23.8V23.81Z" fill="#457158"/>
<path d="M507.259 13.1401C507.599 14.0701 507.769 15.0901 507.879 16.0701C508.169 18.7001 508.099 21.3701 507.449 23.9301C507.249 24.7101 508.219 24.9301 508.419 24.1501C509.099 21.4901 509.429 18.8001 509.129 16.0701C509.009 14.9801 508.849 13.8401 508.469 12.8001C508.189 12.0501 506.979 12.3801 507.259 13.1301V13.1401Z" fill="#457158"/>
<path d="M518.759 12.3501C517.919 12.3501 517.049 12.4901 516.239 12.6801C514.769 13.0201 513.529 13.7201 512.539 14.9101C512.319 15.1701 511.999 15.4801 512.259 15.7401C512.479 15.9601 512.869 15.7901 513.089 15.5301C513.969 14.4701 515.309 14.1801 516.639 13.8801C517.419 13.7001 517.939 13.6201 518.769 13.6101C519.569 13.6101 519.579 12.3501 518.769 12.3601L518.759 12.3501Z" fill="#457158"/>
<path d="M521.549 2.20996C519.179 37.89 494.549 70.42 494.479 70.52C519.609 53.74 521.479 12.24 521.549 2.20996Z" fill="#77AD74"/>
<path d="M496.479 96.1799C496.479 96.1799 502.709 49.7699 548.389 62.7399C548.389 62.7399 525.049 91.2199 496.479 96.1799Z" fill="#72A265"/>
<path d="M544.18 62.75C542.26 62.87 540.36 63.24 538.57 63.62C533.77 64.66 529.35 66.21 525.36 68.05C518.97 70.99 513.72 74.7 509.45 78.69C503 84.72 498.67 91.44 495.61 98.27C491.04 108.45 489.2 119.01 488.68 129.5C488.6 131.12 488.56 132.73 488.54 134.35C488.54 134.73 489.57 134.73 489.58 134.35C489.69 123.39 491.1 112.35 495.27 101.64C498.07 94.45 502.13 87.35 508.41 80.9C512.57 76.63 517.73 72.65 524.16 69.41C528.17 67.39 532.72 65.66 537.64 64.48C539.78 63.97 541.95 63.61 544.22 63.35C544.29 63.35 544.04 63.36 544.18 63.35C544.84 63.31 544.84 62.71 544.18 62.76V62.75Z" fill="#457158"/>
<path d="M506.569 74.9699C506.199 76.4299 505.779 77.8799 505.329 79.3199C504.539 81.8399 503.689 84.3999 502.429 86.7299C502.199 87.1499 502.849 87.5299 503.079 87.1099C504.349 84.7699 505.209 82.1899 506.009 79.6599C506.479 78.1799 506.919 76.6799 507.299 75.1699C507.419 74.6999 506.699 74.4999 506.579 74.9699H506.569Z" fill="#457158"/>
<path d="M519.589 80.9698C517.109 81.3998 514.649 82.1298 512.279 82.9698C507.939 84.4998 503.619 86.6098 500.359 89.9198C500.019 90.2598 500.549 90.7898 500.889 90.4498C504.169 87.1298 508.539 85.0398 512.909 83.5398C515.149 82.7698 517.459 82.0998 519.799 81.6898C520.269 81.6098 520.069 80.8798 519.599 80.9698H519.589Z" fill="#457158"/>
<path d="M514.96 67.2099C514.92 68.3499 514.74 69.4999 514.5 70.6199C514.03 72.7799 513.25 74.9899 511.76 76.6699C511.44 77.0299 511.97 77.5599 512.29 77.1999C513.84 75.4499 514.7 73.1899 515.2 70.9299C515.47 69.7199 515.67 68.4599 515.71 67.2099C515.73 66.7299 514.98 66.7299 514.96 67.2099Z" fill="#457158"/>
<path d="M531.46 72.84C529.34 72.55 527.18 72.46 525.04 72.48C521.47 72.51 517.61 72.84 514.41 74.56C513.98 74.79 514.36 75.44 514.79 75.21C517.93 73.52 521.74 73.24 525.24 73.23C526.67 73.23 528.09 73.28 529.51 73.4C529.93 73.43 530.36 73.47 530.78 73.52C530.91 73.53 531.03 73.55 531.16 73.56C531.2 73.56 531.46 73.6 531.25 73.57C531.72 73.63 531.93 72.91 531.45 72.85L531.46 72.84Z" fill="#457158"/>
<path d="M527.899 62.3598C527.899 62.4398 527.909 62.2698 527.899 62.3198C527.899 62.3698 527.879 62.4198 527.879 62.4698C527.849 62.6298 527.819 62.7998 527.779 62.9598C527.639 63.5198 527.449 64.0798 527.209 64.5998C526.409 66.3698 525.119 67.8498 523.499 68.9298C523.099 69.1998 523.469 69.8498 523.879 69.5798C526.169 68.0598 527.919 65.7198 528.539 63.0298C528.589 62.8098 528.629 62.5898 528.659 62.3698C528.709 61.8898 527.959 61.8898 527.909 62.3698L527.899 62.3598Z" fill="#457158"/>
<path d="M548.389 62.74C548.389 62.74 515.399 89.68 496.479 96.18C525.049 91.23 548.389 62.74 548.389 62.74Z" fill="#84BD75"/>
<path d="M538.589 67.6199C537.599 67.2499 536.569 66.9699 535.539 66.7199C533.669 66.2799 531.689 65.9599 529.769 66.1899C529.299 66.2499 529.289 66.9999 529.769 66.9399C531.669 66.7099 533.599 67.0199 535.449 67.4699C536.439 67.7099 537.429 67.9899 538.389 68.3399C538.839 68.5099 539.039 67.7799 538.589 67.6199Z" fill="#457158"/>
<path d="M504.07 118.57C504.07 118.57 516.61 95.3601 538.03 115.16C538.03 115.16 522.13 129.03 504.07 118.57Z" fill="#5C8A5C"/>
<path d="M531.19 113.16C530.02 112.76 528.7 112.47 527.41 112.23C524.56 111.71 521.51 111.52 518.54 111.78C514.47 112.14 510.88 113.41 508.16 115.15C503.61 118.06 501.23 121.94 499.66 125.67C496.79 132.51 496.34 139.67 496.51 146.67C496.54 147.83 496.59 149 496.66 150.16C496.68 150.54 497.72 150.54 497.7 150.16C497.26 142.75 497.39 135.2 499.87 127.9C501.23 123.9 503.31 119.72 507.65 116.42C510.14 114.53 513.52 113.02 517.6 112.48C520.49 112.09 523.5 112.21 526.34 112.66C527.3 112.81 528.43 113.04 529.19 113.24C529.66 113.36 530.12 113.54 530.6 113.64C530.62 113.64 530.64 113.65 530.66 113.66C531.23 113.86 531.76 113.34 531.18 113.15L531.19 113.16Z" fill="#457158"/>
<path d="M516.01 108.75C515.78 109.16 515.51 109.48 515.22 109.82C514.34 110.84 513.31 111.74 512.24 112.55C511.29 113.26 510.28 113.9 509.25 114.5C508.83 114.74 509.21 115.39 509.63 115.15C512.14 113.71 514.7 111.93 516.4 109.54C516.49 109.41 516.59 109.28 516.66 109.14C516.89 108.72 516.25 108.34 516.01 108.76V108.75Z" fill="#457158"/>
<path d="M521.02 118.38C519.47 117.46 517.74 116.75 516.02 116.21C513.07 115.29 509.78 114.89 506.88 116.2C506.44 116.4 506.82 117.04 507.26 116.85C510.06 115.59 513.32 116.12 516.14 117.04C517.69 117.55 519.24 118.19 520.64 119.03C521.06 119.28 521.43 118.63 521.02 118.38Z" fill="#457158"/>
<path d="M528.63 116.58C527.7 115.67 526.67 114.86 525.61 114.12C523.9 112.93 521.84 111.77 519.7 111.79C519.22 111.79 519.22 112.26 519.7 112.26C521.75 112.24 523.7 113.69 525.32 114.82C526.3 115.51 527.25 116.26 528.11 117.1C528.46 117.44 528.99 116.91 528.64 116.57L528.63 116.58Z" fill="#457158"/>
<path d="M524.99 108.65C525.11 108.56 524.95 108.68 524.89 108.72C524.75 108.82 524.62 108.91 524.48 109.01C523.98 109.35 523.45 109.66 522.92 109.94C521.19 110.86 519.32 111.52 517.39 111.88C516.92 111.97 517.13 112.58 517.6 112.49C519.59 112.12 521.51 111.53 523.3 110.58C524.07 110.17 524.84 109.72 525.52 109.17C525.9 108.87 525.37 108.34 524.99 108.64V108.65Z" fill="#457158"/>
<path d="M538.04 115.16C538.04 115.16 518.46 123.71 504.08 118.57C522.15 129.03 538.04 115.16 538.04 115.16Z" fill="#77AD74"/>
<path d="M480.48 90.7701C480.48 90.7701 454.31 49.6801 470.16 21.6201C470.16 21.6201 495.27 49.7701 480.48 90.7701Z" fill="#72A265"/>
<path d="M486.25 155.88C485.75 141.62 484.91 127.36 483.71 113.11C482.71 101.33 481.47 89.5501 479.96 77.7901C478.8 68.7501 477.48 59.7201 475.96 50.7001C474.97 44.8201 473.91 38.9501 472.71 33.0801C472.38 31.4501 472.04 29.8101 471.68 28.1801C471.53 27.4801 471.54 26.6601 471.18 25.9801C471.17 25.9501 471.17 25.9201 471.16 25.8901C471.07 25.5101 470.07 25.6701 470.16 26.0501C470.2 26.2101 470.18 26.1301 470.23 26.3701C470.31 26.7401 470.4 27.1101 470.48 27.4701C470.8 28.8901 471.1 30.3101 471.4 31.7401C472.53 37.2101 473.55 42.6801 474.49 48.1601C475.98 56.8101 477.28 65.4601 478.44 74.1201C479.97 85.5801 481.23 97.0401 482.27 108.52C483.52 122.42 484.42 136.32 485 150.23C485.08 152.11 485.15 153.99 485.21 155.87C485.22 156.25 486.26 156.25 486.25 155.87V155.88Z" fill="#457158"/>
<path d="M472.429 69.2602C473.639 70.3002 474.719 71.5602 475.669 72.8402C477.679 75.5402 479.199 78.6302 479.659 81.9902C479.719 82.4702 480.449 82.2602 480.379 81.7902C479.909 78.3802 478.359 75.2102 476.319 72.4602C475.329 71.1302 474.229 69.8202 472.959 68.7302C472.599 68.4202 472.059 68.9502 472.429 69.2602Z" fill="#457158"/>
<path d="M481.33 60.1902C480.61 61.0502 480.15 62.1702 479.78 63.2102C478.66 66.3202 478.4 69.7102 478.5 72.9902C478.51 73.4702 479.26 73.4702 479.25 72.9902C479.15 69.8002 479.4 66.5402 480.47 63.5202C480.73 62.7802 481.05 62.0502 481.44 61.3702C481.55 61.1902 481.66 61.0102 481.78 60.8402C481.8 60.8002 481.9 60.6502 481.83 60.7702C481.83 60.7602 481.85 60.7402 481.86 60.7302C482.17 60.3602 481.64 59.8302 481.33 60.2002V60.1902Z" fill="#457158"/>
<path d="M467.469 53.0502C468.879 54.2002 470.139 55.5802 471.319 56.9602C474.099 60.2402 476.359 63.9702 477.839 68.0102C477.999 68.4602 478.729 68.2702 478.559 67.8102C477.069 63.7502 474.829 60.0202 472.069 56.7002C470.829 55.2202 469.499 53.7402 467.999 52.5202C467.629 52.2202 467.099 52.7502 467.469 53.0502Z" fill="#457158"/>
<path d="M479.229 43.9101C478.649 45.4201 478.259 47.0201 477.919 48.5901C477.069 52.4501 476.669 56.4001 476.679 60.3501C476.679 60.8301 477.429 60.8301 477.429 60.3501C477.419 56.4001 477.819 52.4501 478.689 48.6001C479.029 47.0901 479.409 45.5601 479.959 44.1101C480.129 43.6601 479.409 43.4601 479.239 43.9101H479.229Z" fill="#457158"/>
<path d="M467.169 38.9502C468.329 39.9202 469.359 41.0902 470.309 42.2602C472.469 44.9302 474.179 47.9902 475.119 51.3102C475.249 51.7702 475.979 51.5802 475.839 51.1102C474.879 47.7602 473.169 44.6802 471.019 41.9602C470.019 40.7002 468.929 39.4602 467.699 38.4202C467.329 38.1102 466.799 38.6402 467.169 38.9502Z" fill="#457158"/>
<path d="M474.78 31.4102C474.35 32.1502 474.12 33.0402 473.92 33.8702C473.35 36.3302 473.32 38.9002 473.53 41.4102C473.57 41.8902 474.32 41.8902 474.28 41.4102C474.08 38.9702 474.09 36.4702 474.64 34.0702C474.82 33.2902 475.03 32.4602 475.42 31.7902C475.66 31.3702 475.01 30.9902 474.77 31.4102H474.78Z" fill="#457158"/>
<path d="M480.48 90.7701C495.26 49.7701 470.16 21.6201 470.16 21.6201C470.16 21.6201 490.4 56.3001 480.48 90.7701Z" fill="#84BD75"/>
<path d="M477.84 116.18C477.84 116.18 477.56 83.02 451.81 82.7C451.81 82.7 454.65 112.69 477.84 116.18Z" fill="#72A265"/>
<path d="M451.81 82.7C451.81 82.7 477.04 92.13 477.84 116.18C477.84 116.18 477.56 83.02 451.81 82.7Z" fill="#84BD75"/>
<path d="M454.029 85.7499C455.199 86.4499 456.149 87.1999 457.119 87.9799C459.939 90.2499 462.349 92.6799 464.509 95.1799C468.039 99.2699 470.839 103.55 473.119 107.91C476.329 114.05 478.509 120.37 479.909 126.73C481.769 135.19 482.289 143.73 481.849 152.25C481.789 153.46 481.709 154.67 481.609 155.88C481.579 156.26 482.619 156.26 482.649 155.88C483.369 147.03 483.129 138.14 481.479 129.33C480.239 122.7 478.209 116.1 475.089 109.67C472.849 105.05 470.049 100.51 466.499 96.1699C464.259 93.4299 461.729 90.7699 458.749 88.2699C457.899 87.5599 457.019 86.8699 456.079 86.1999C455.699 85.9299 455.309 85.5799 454.839 85.3599C454.819 85.3599 454.799 85.3399 454.779 85.3299C454.319 85.0499 453.579 85.4699 454.049 85.7499H454.029Z" fill="#457158"/>
<path d="M465.39 106.59C466.62 106.65 467.88 106.97 469.04 107.36C471.57 108.23 473.84 109.79 475.28 112.07C475.54 112.48 476.19 112.1 475.93 111.69C473.84 108.41 470.18 106.5 466.4 105.95C466.07 105.9 465.73 105.85 465.39 105.84C464.91 105.82 464.91 106.57 465.39 106.59Z" fill="#457158"/>
<path d="M468.38 93.3699C469.22 96.9899 470.11 100.6 471.1 104.18C471.23 104.64 471.95 104.45 471.82 103.98C470.83 100.4 469.93 96.7899 469.1 93.1699C468.99 92.6999 468.27 92.8999 468.38 93.3699Z" fill="#457158"/>
<path d="M458.63 97.0899C458.87 97.0499 459.28 97.0099 459.64 96.9999C460.54 96.9599 461.45 96.9999 462.34 97.1299C464.98 97.5399 467.4 98.7899 469.01 100.96C469.29 101.34 469.95 100.96 469.66 100.58C467.14 97.1799 462.57 95.6499 458.43 96.3699C457.96 96.4499 458.16 97.1799 458.63 97.0899Z" fill="#457158"/>
<path d="M459.52 85.95C460.97 89.02 462.57 92.08 464.5 94.87C464.77 95.26 465.42 94.89 465.15 94.49C463.22 91.7 461.62 88.64 460.17 85.57C459.96 85.13 459.32 85.51 459.52 85.95Z" fill="#457158"/>
<path d="M454.4 88.74C454.46 88.74 454.38 88.74 454.36 88.74C454.41 88.74 454.46 88.75 454.51 88.76C454.67 88.79 454.84 88.82 455 88.85C455.57 88.96 456.13 89.11 456.68 89.28C458.35 89.81 459.96 90.6 461.31 91.72C461.68 92.03 462.21 91.5 461.84 91.19C459.78 89.48 457.07 88.31 454.4 87.99C453.92 87.93 453.93 88.68 454.4 88.74Z" fill="#457158"/>
<path d="M453.87 135.31L458.56 173.5C458.56 185.14 468.09 194.67 479.73 194.67H503.07C514.71 194.67 524.24 185.14 524.24 173.5L530.1 135.31H453.87Z" fill="#B4D9D3"/>
<mask id="mask10_518_358" style="mask-type:luminance" maskUnits="userSpaceOnUse" x="453" y="135" width="78" height="60">
<path d="M453.87 135.31L458.56 173.5C458.56 185.14 468.09 194.67 479.73 194.67H503.07C514.71 194.67 524.24 185.14 524.24 173.5L530.1 135.31H453.87Z" fill="white"/>
</mask>
<g mask="url(#mask10_518_358)">
<path d="M528.659 150.48C526.539 152.84 524.429 155.2 522.309 157.56C520.189 155.2 518.079 152.84 515.959 150.48C515.349 149.8 514.079 149.8 513.469 150.48C511.359 152.84 509.239 155.2 507.129 157.56C505.019 155.2 502.909 152.84 500.789 150.48C500.179 149.8 498.909 149.8 498.299 150.48C496.189 152.84 494.069 155.2 491.959 157.56C489.849 155.2 487.739 152.84 485.619 150.48C485.009 149.8 483.739 149.8 483.129 150.48C481.019 152.84 478.909 155.2 476.789 157.55C474.679 155.19 472.569 152.83 470.449 150.48C469.839 149.8 468.569 149.8 467.959 150.48C465.849 152.84 463.739 155.2 461.629 157.55C459.519 155.19 457.409 152.83 455.299 150.48C453.779 148.78 451.289 151.29 452.809 152.97C455.339 155.79 457.859 158.62 460.389 161.44C460.999 162.12 462.269 162.12 462.879 161.44C464.989 159.08 467.099 156.72 469.209 154.37C471.319 156.73 473.429 159.09 475.549 161.44C476.159 162.12 477.429 162.12 478.039 161.44C480.149 159.08 482.259 156.72 484.379 154.37C486.489 156.73 488.599 159.09 490.719 161.44C491.329 162.12 492.599 162.12 493.209 161.44L499.549 154.37C501.659 156.73 503.769 159.09 505.889 161.44C506.499 162.12 507.769 162.12 508.379 161.44C510.489 159.08 512.609 156.72 514.719 154.36C516.839 156.72 518.949 159.08 521.069 161.44C521.679 162.12 522.949 162.12 523.559 161.44C526.089 158.62 528.619 155.8 531.149 152.97C532.659 151.28 530.179 148.78 528.659 150.48Z" fill="white"/>
<path d="M528.659 163.37C526.539 165.73 524.429 168.09 522.309 170.45C520.189 168.09 518.079 165.73 515.959 163.37C515.349 162.69 514.079 162.69 513.469 163.37C511.359 165.73 509.239 168.09 507.129 170.45C505.019 168.09 502.909 165.73 500.789 163.37C500.179 162.69 498.909 162.69 498.299 163.37C496.189 165.73 494.069 168.09 491.959 170.45C489.849 168.09 487.739 165.73 485.619 163.37C485.009 162.69 483.739 162.69 483.129 163.37C481.019 165.73 478.909 168.09 476.789 170.44C474.679 168.08 472.569 165.72 470.449 163.37C469.839 162.69 468.569 162.69 467.959 163.37C465.849 165.73 463.739 168.09 461.629 170.44C459.519 168.08 457.409 165.72 455.299 163.37C453.779 161.67 451.289 164.18 452.809 165.86C455.339 168.68 457.859 171.51 460.389 174.33C460.999 175.01 462.269 175.01 462.879 174.33C464.989 171.97 467.099 169.61 469.209 167.26C471.319 169.62 473.429 171.98 475.549 174.33C476.159 175.01 477.429 175.01 478.039 174.33C480.149 171.97 482.259 169.61 484.379 167.26C486.489 169.62 488.599 171.98 490.719 174.33C491.329 175.01 492.599 175.01 493.209 174.33L499.549 167.26C501.659 169.62 503.769 171.98 505.889 174.33C506.499 175.01 507.769 175.01 508.379 174.33C510.489 171.97 512.609 169.61 514.719 167.25C516.839 169.61 518.949 171.97 521.069 174.33C521.679 175.01 522.949 175.01 523.559 174.33C526.089 171.51 528.619 168.69 531.149 165.86C532.659 164.17 530.179 161.67 528.659 163.37Z" fill="white"/>
</g>
<path opacity="0.1" d="M513.259 135.31L507.399 173.5C507.399 185.14 497.869 194.67 486.229 194.67H503.069C514.709 194.67 524.239 185.14 524.239 173.5L530.099 135.31H513.259Z" fill="#482C80"/>
<path d="M533.15 134.13H450.81V141.4H533.15V134.13Z" fill="#91B9B2"/>
</g>
<defs>
<clipPath id="clip0_518_358">
<rect width="548.39" height="214.91" fill="white"/>
</clipPath>
</defs>
</svg>
